<svg width="28" height="28" viewBox="0 0 28 28" fill="none" xmlns="http://www.w3.org/2000/svg">
<path fill-rule="evenodd" clip-rule="evenodd" d="M19.5839 14.9906C20.072 14.9244 20.4482 14.506 20.4482 13.9998C20.4482 13.4475 20.0005 12.9998 19.4482 12.9998L10.9728 12.9998L14.2761 9.71105L14.3732 9.5991C14.6645 9.20824 14.6334 8.65262 14.2791 8.29684C13.8894 7.90549 13.2563 7.90414 12.8649 8.29383L7.84624 13.2912L7.84364 13.2942C7.81091 13.327 7.78045 13.3622 7.75252 13.3993L7.74892 13.4035C7.45695 13.7956 7.48939 14.3531 7.84624 14.7084L12.8649 19.7057L12.9773 19.8023C13.3694 20.0919 13.9249 20.0585 14.2791 19.7027L14.3757 19.5903C14.6653 19.1982 14.6319 18.6428 14.2761 18.2885L10.9747 14.9998L19.4482 14.9998L19.5839 14.9906Z" fill="white"/>
<path fill-rule="evenodd" clip-rule="evenodd" d="M27.3335 8.22117L27.3335 19.7798C27.3335 24.318 24.0944 27.3332 19.4455 27.3332L8.55483 27.3332C3.91078 27.3332 0.66683 24.309 0.66683 19.7798L0.66683 8.22117C0.66683 3.68279 3.90617 0.666504 8.55483 0.666504L19.4455 0.666504C24.0942 0.666504 27.3335 3.68279 27.3335 8.22117ZM25.3335 19.7798L25.3335 8.22117C25.3335 4.8205 23.0202 2.6665 19.4455 2.6665L8.55483 2.6665C4.98011 2.6665 2.66683 4.8205 2.66683 8.22117L2.66683 19.7798C2.66683 23.1719 4.9852 25.3332 8.55483 25.3332L19.4455 25.3332C23.0206 25.3332 25.3335 23.1802 25.3335 19.7798Z" fill="white"/>
</svg>
