<svg width="25" height="25" viewBox="0 0 25 25" fill="none" xmlns="http://www.w3.org/2000/svg">
<path fill-rule="evenodd" clip-rule="evenodd" d="M4.50001 3.5C3.91812 3.5 3.54953 3.95395 3.59361 4.39854C4.48361 13.3754 11.6247 20.5164 20.6015 21.4064C21.0461 21.4505 21.5 21.0819 21.5 20.5V16.9415C21.5 16.5111 21.2246 16.1289 20.8162 15.9928L17.3564 14.8396C16.9971 14.7198 16.6009 14.8133 16.3331 15.0811L15.7793 15.6349C15.1167 16.2976 14.0612 16.4243 13.2615 15.8773C11.3704 14.5836 10.269 13.4895 9.09441 11.7209C8.56334 10.9213 8.70243 9.88337 9.35311 9.23269L9.91887 8.66693C10.1867 8.39909 10.2802 8.00292 10.1604 7.64359L9.00718 4.18377C8.87106 3.77543 8.48892 3.5 8.05849 3.5H4.50001ZM1.60336 4.59586C1.42949 2.84208 2.87276 1.5 4.50001 1.5H8.05849C9.34979 1.5 10.4962 2.32629 10.9045 3.55132L12.0578 7.01113C12.4172 8.08914 12.1366 9.27764 11.3331 10.0811L10.7762 10.6381C11.7859 12.1536 12.6943 13.064 14.372 14.2138L14.9189 13.6669C15.7224 12.8634 16.9109 12.5829 17.9889 12.9422L21.4487 14.0955C22.6737 14.5038 23.5 15.6502 23.5 16.9415V20.5C23.5 22.1273 22.1579 23.5705 20.4042 23.3966C10.4788 22.4126 2.58741 14.5212 1.60336 4.59586ZM17.7929 1.79289C18.1834 1.40237 18.8166 1.40237 19.2071 1.79289L20.5 3.08579L21.7929 1.79289C22.1834 1.40237 22.8166 1.40237 23.2071 1.79289C23.5976 2.18342 23.5976 2.81658 23.2071 3.20711L21.9142 4.5L23.2071 5.79289C23.5976 6.18342 23.5976 6.81658 23.2071 7.20711C22.8166 7.59763 22.1834 7.59763 21.7929 7.20711L20.5 5.91421L19.2071 7.20711C18.8166 7.59763 18.1834 7.59763 17.7929 7.20711C17.4024 6.81658 17.4024 6.18342 17.7929 5.79289L19.0858 4.5L17.7929 3.20711C17.4024 2.81658 17.4024 2.18342 17.7929 1.79289Z" fill="white"/>
</svg>
