<svg width="24" height="24" viewBox="0 0 24 24" fill="none" xmlns="http://www.w3.org/2000/svg">
<path fill-rule="evenodd" clip-rule="evenodd" d="M10 11C10 11.553 9.552 12 9 12C8.448 12 8 11.553 8 11C8 10.447 8.448 10 9 10C9.552 10 10 10.447 10 11Z" fill="white"/>
<path fill-rule="evenodd" clip-rule="evenodd" d="M13 11C13 11.553 12.552 12 12 12C11.448 12 11 11.553 11 11C11 10.447 11.448 10 12 10C12.552 10 13 10.447 13 11Z" fill="white"/>
<path fill-rule="evenodd" clip-rule="evenodd" d="M16 11C16 11.553 15.552 12 15 12C14.448 12 14 11.553 14 11C14 10.447 14.448 10 15 10C15.552 10 16 10.447 16 11Z" fill="white"/>
<path fill-rule="evenodd" clip-rule="evenodd" d="M8 18H12C18.93 18 20 16.25 20 11C20 5.75 18.93 4 12 4C5.07 4 4 5.75 4 11V20L8 18Z" stroke="white" stroke-width="2" stroke-linecap="round" stroke-linejoin="round"/>
<circle cx="16" cy="4.47876" r="4" fill="#1BBDFF"/>
</svg>
