<svg width="24" height="24" viewBox="0 0 24 24" fill="none" xmlns="http://www.w3.org/2000/svg">
<path fill-rule="evenodd" clip-rule="evenodd" d="M12 19C4.2 19 3 17.25 3 12C3 6.75 4.2 5 12 5C19.8 5 21 6.75 21 12C21 17.25 19.8 19 12 19Z" stroke="white" stroke-width="2" stroke-linecap="round" stroke-linejoin="round"/>
<path d="M4 9H20" stroke="white" stroke-width="2" stroke-linecap="round" stroke-linejoin="round"/>
<path d="M7 14H9" stroke="white" stroke-width="2" stroke-linecap="round" stroke-linejoin="round"/>
<path fill-rule="evenodd" clip-rule="evenodd" d="M13 14C13 14.553 12.552 15 12 15C11.448 15 11 14.553 11 14C11 13.447 11.448 13 12 13C12.552 13 13 13.447 13 14Z" fill="white"/>
</svg>
