<svg id="Layer_1" data-name="Layer 1" xmlns="http://www.w3.org/2000/svg" viewBox="0 0 20.63 22"><defs><style>.cls-1{fill:#fff;fill-rule:evenodd;}</style></defs><title>Group 3399</title><path class="cls-1" d="M20.63,18.22a2.75,2.75,0,0,1-2.75-2.75V9.63a7.61,7.61,0,0,0-5.5-7.29V2.06a2.07,2.07,0,0,0-4.13,0v.28a7.61,7.61,0,0,0-5.5,7.29v5.84A2.76,2.76,0,0,1,0,18.22v1.37H7.29a3.1,3.1,0,0,0,6.05,0h7.29ZM9.63,2.06a.67.67,0,0,1,.68-.68.68.68,0,0,1,.69.68v0a4,4,0,0,0-.69,0Zm.68,18.57a1.75,1.75,0,0,1-1.58-1h3.16A1.73,1.73,0,0,1,10.31,20.63ZM3.06,18.22a4.12,4.12,0,0,0,1.07-2.75V9.63a6.19,6.19,0,1,1,12.37,0v5.84a4.07,4.07,0,0,0,1.07,2.75Z"/></svg>