<svg id="Layer_1" data-name="Layer 1" xmlns="http://www.w3.org/2000/svg" viewBox="0 0 22 22"><defs><style>.cls-1{fill:#fff;}.cls-2{fill:none;stroke:#7d909b;stroke-width:2px;}</style></defs><title>Group 3400</title><path class="cls-1" d="M1,21l-1-.28A1,1,0,0,0,1,22Zm18,0v1a1,1,0,0,0,1-1.28ZM10,10A4,4,0,0,1,6,6H4a6,6,0,0,0,6,6ZM6,6a4,4,0,0,1,4-4V0A6,6,0,0,0,4,6ZM2,21.28A8.52,8.52,0,0,1,10,15V13A10.52,10.52,0,0,0,0,20.72ZM10,15a8.52,8.52,0,0,1,8,6.28L20,20.72A10.52,10.52,0,0,0,10,13ZM1,22H19V20H1ZM10,2a4,4,0,0,1,2,.53L13,.8A6,6,0,0,0,10,0Z" transform="translate(0)"/><path class="cls-2" d="M22,7H12m5-5V12" transform="translate(0)"/></svg>