<svg width="16" height="15" viewBox="0 0 16 15" fill="none" xmlns="http://www.w3.org/2000/svg">
<path fill-rule="evenodd" clip-rule="evenodd" d="M10.15 2.66667C10.15 1.19391 11.4484 0 13.05 0C14.6516 0 15.95 1.19391 15.95 2.66667C15.95 4.13943 14.6516 5.33333 13.05 5.33333C12.0601 5.33333 11.186 4.87725 10.6627 4.18114L5.63181 6.43626C5.74069 6.71659 5.79999 7.01859 5.79999 7.33333C5.79999 7.62633 5.7486 7.9083 5.65366 8.17202L10.6557 10.4949C11.1782 9.7935 12.0556 9.33333 13.05 9.33333C14.6516 9.33333 15.95 10.5272 15.95 12C15.95 13.4728 14.6516 14.6667 13.05 14.6667C11.4484 14.6667 10.15 13.4728 10.15 12C10.15 11.9188 10.1539 11.8385 10.1616 11.7591L4.86121 9.29773C4.34493 9.7338 3.65627 10 2.89999 10C1.29837 10 0 8.80609 0 7.33333C0 5.86057 1.29837 4.66667 2.89999 4.66667C3.62948 4.66667 4.29606 4.91435 4.8057 5.32324L10.1631 2.92179C10.1544 2.83782 10.15 2.75272 10.15 2.66667ZM14.5 2.66667C14.5 1.93029 13.8508 1.33333 13.05 1.33333C12.2492 1.33333 11.6 1.93029 11.6 2.66667C11.6 3.40305 12.2492 4 13.05 4C13.8508 4 14.5 3.40305 14.5 2.66667ZM14.5 12C14.5 11.2636 13.8508 10.6667 13.05 10.6667C12.2492 10.6667 11.6 11.2636 11.6 12C11.6 12.7364 12.2492 13.3333 13.05 13.3333C13.8508 13.3333 14.5 12.7364 14.5 12ZM2.89999 6C3.7008 6 4.34999 6.59695 4.34999 7.33333C4.34999 8.06971 3.7008 8.66667 2.89999 8.66667C2.09918 8.66667 1.45 8.06971 1.45 7.33333C1.45 6.59695 2.09918 6 2.89999 6Z" fill="#BCBABD"/>
</svg>
