<svg id="Layer_1" data-name="Layer 1" xmlns="http://www.w3.org/2000/svg" viewBox="0 0 19.22 20"><defs><style>.cls-1{fill:none;stroke:#1abcfe;stroke-linecap:round;stroke-linejoin:round;stroke-width:2px;}</style></defs><title>Group 3398</title><path class="cls-1" d="M12.55,21H10.4a7.71,7.71,0,0,1-7.53-7.88V10.87A7.7,7.7,0,0,1,10.4,3h2.15a7.7,7.7,0,0,1,7.54,7.87v2.25A7.71,7.71,0,0,1,12.55,21Z" transform="translate(-1.87 -2)"/><path class="cls-1" d="M11.81,21a8.37,8.37,0,0,1-4.16-7.3V10.3A8.36,8.36,0,0,1,11.81,3" transform="translate(-1.87 -2)"/><path class="cls-1" d="M10.52,21a8.35,8.35,0,0,0,4.16-7.3V10.3A8.38,8.38,0,0,0,10.53,3" transform="translate(-1.87 -2)"/><path class="cls-1" d="M20.09,12H2.87" transform="translate(-1.87 -2)"/></svg>