<svg width="25" height="25" viewBox="0 0 25 25" fill="none" xmlns="http://www.w3.org/2000/svg">
<path fill-rule="evenodd" clip-rule="evenodd" d="M12.5217 1.56165C6.20867 1.56165 1.04346 6.09915 1.04346 11.6866C1.04346 14.7241 2.58585 17.6116 5.2402 19.5241C5.02498 20.0866 4.59454 21.0616 3.5902 22.0366C3.26737 22.3366 3.15976 22.8241 3.30324 23.2741C3.48259 23.7241 3.87715 23.9866 4.30759 23.9866C4.34346 23.9866 4.4152 23.9866 4.48694 23.9866C7.06954 23.5741 9.11411 22.1116 9.8315 21.5491C10.4054 21.6616 11.5174 21.8866 12.5217 21.8866C18.8348 21.8866 24 17.3491 24 11.7616C24 6.17415 18.8348 1.56165 12.5217 1.56165ZM12.5217 20.3116C11.338 20.3116 9.8315 19.9741 9.79563 19.9366L9.43693 19.8616L9.14998 20.1241C9.11411 20.1241 7.53585 21.5491 5.3478 22.2241C6.49563 20.7241 6.74672 19.4116 6.74672 19.3366L6.81846 18.8491L6.42389 18.5866C3.91302 16.8991 2.47824 14.4241 2.47824 11.6866C2.47824 6.92415 6.9978 3.06165 12.5217 3.06165C18.0456 3.06165 22.5652 6.92415 22.5652 11.6866C22.5652 16.4491 18.0456 20.3116 12.5217 20.3116Z" fill="#5E6272"/>
<path d="M5.2402 19.5241L5.70718 19.7028L5.84469 19.3434L5.53249 19.1185L5.2402 19.5241ZM3.5902 22.0366L3.93064 22.403L3.93847 22.3954L3.5902 22.0366ZM3.30324 23.2741L2.82687 23.426L2.83223 23.4429L2.83877 23.4593L3.30324 23.2741ZM4.48694 23.9866V24.4866H4.52661L4.5658 24.4804L4.48694 23.9866ZM9.8315 21.5491L9.92768 21.0585L9.70309 21.0145L9.52298 21.1557L9.8315 21.5491ZM9.79563 19.9366L10.157 19.591L10.0498 19.479L9.89796 19.4472L9.79563 19.9366ZM9.43693 19.8616L9.53927 19.3722L9.28849 19.3198L9.09945 19.4927L9.43693 19.8616ZM9.14998 20.1241V20.6241H9.34417L9.48746 20.4931L9.14998 20.1241ZM5.3478 22.2241L4.95072 21.9203L3.99953 23.1633L5.4952 22.7019L5.3478 22.2241ZM6.74672 19.3366L6.25205 19.2639L6.24672 19.3001V19.3366H6.74672ZM6.81846 18.8491L7.31313 18.9219L7.35927 18.6084L7.09541 18.4329L6.81846 18.8491ZM6.42389 18.5866L6.14499 19.0016L6.14694 19.0029L6.42389 18.5866ZM12.5217 1.06165C5.99395 1.06165 0.543457 5.76535 0.543457 11.6866H1.54346C1.54346 6.43295 6.42339 2.06165 12.5217 2.06165V1.06165ZM0.543457 11.6866C0.543457 14.8982 2.17435 17.9314 4.94791 19.9298L5.53249 19.1185C2.99735 17.2919 1.54346 14.5501 1.54346 11.6866H0.543457ZM4.77321 19.3455C4.57191 19.8716 4.1743 20.7728 3.24192 21.6779L3.93847 22.3954C5.01479 21.3505 5.47805 20.3017 5.70718 19.7028L4.77321 19.3455ZM3.24983 21.6704C2.76722 22.1189 2.63239 22.8161 2.82687 23.426L3.77961 23.1223C3.68713 22.8322 3.76752 22.5544 3.93056 22.4029L3.24983 21.6704ZM2.83877 23.4593C3.09001 24.0896 3.66217 24.4866 4.30759 24.4866V23.4866C4.09214 23.4866 3.87517 23.3587 3.76771 23.089L2.83877 23.4593ZM4.30759 24.4866C4.30766 24.4866 4.30773 24.4866 4.3078 24.4866C4.30787 24.4866 4.30794 24.4866 4.30801 24.4866C4.30808 24.4866 4.30815 24.4866 4.30822 24.4866C4.30829 24.4866 4.30836 24.4866 4.30843 24.4866C4.30851 24.4866 4.30858 24.4866 4.30865 24.4866C4.30872 24.4866 4.30879 24.4866 4.30886 24.4866C4.30893 24.4866 4.30901 24.4866 4.30908 24.4866C4.30915 24.4866 4.30922 24.4866 4.30929 24.4866C4.30937 24.4866 4.30944 24.4866 4.30951 24.4866C4.30958 24.4866 4.30966 24.4866 4.30973 24.4866C4.3098 24.4866 4.30988 24.4866 4.30995 24.4866C4.31002 24.4866 4.31009 24.4866 4.31017 24.4866C4.31024 24.4866 4.31031 24.4866 4.31039 24.4866C4.31046 24.4866 4.31054 24.4866 4.31061 24.4866C4.31068 24.4866 4.31076 24.4866 4.31083 24.4866C4.31091 24.4866 4.31098 24.4866 4.31105 24.4866C4.31113 24.4866 4.3112 24.4866 4.31128 24.4866C4.31135 24.4866 4.31143 24.4866 4.3115 24.4866C4.31158 24.4866 4.31165 24.4866 4.31173 24.4866C4.3118 24.4866 4.31188 24.4866 4.31195 24.4866C4.31203 24.4866 4.3121 24.4866 4.31218 24.4866C4.31226 24.4866 4.31233 24.4866 4.31241 24.4866C4.31248 24.4866 4.31256 24.4866 4.31264 24.4866C4.31271 24.4866 4.31279 24.4866 4.31286 24.4866C4.31294 24.4866 4.31302 24.4866 4.31309 24.4866C4.31317 24.4866 4.31325 24.4866 4.31332 24.4866C4.3134 24.4866 4.31348 24.4866 4.31356 24.4866C4.31363 24.4866 4.31371 24.4866 4.31379 24.4866C4.31387 24.4866 4.31394 24.4866 4.31402 24.4866C4.3141 24.4866 4.31418 24.4866 4.31425 24.4866C4.31433 24.4866 4.31441 24.4866 4.31449 24.4866C4.31457 24.4866 4.31465 24.4866 4.31472 24.4866C4.3148 24.4866 4.31488 24.4866 4.31496 24.4866C4.31504 24.4866 4.31512 24.4866 4.3152 24.4866C4.31528 24.4866 4.31536 24.4866 4.31543 24.4866C4.31551 24.4866 4.31559 24.4866 4.31567 24.4866C4.31575 24.4866 4.31583 24.4866 4.31591 24.4866C4.31599 24.4866 4.31607 24.4866 4.31615 24.4866C4.31623 24.4866 4.31631 24.4866 4.31639 24.4866C4.31647 24.4866 4.31655 24.4866 4.31663 24.4866C4.31671 24.4866 4.3168 24.4866 4.31688 24.4866C4.31696 24.4866 4.31704 24.4866 4.31712 24.4866C4.3172 24.4866 4.31728 24.4866 4.31736 24.4866C4.31744 24.4866 4.31753 24.4866 4.31761 24.4866C4.31769 24.4866 4.31777 24.4866 4.31785 24.4866C4.31793 24.4866 4.31802 24.4866 4.3181 24.4866C4.31818 24.4866 4.31826 24.4866 4.31834 24.4866C4.31843 24.4866 4.31851 24.4866 4.31859 24.4866C4.31867 24.4866 4.31876 24.4866 4.31884 24.4866C4.31892 24.4866 4.31901 24.4866 4.31909 24.4866C4.31917 24.4866 4.31925 24.4866 4.31934 24.4866C4.31942 24.4866 4.31951 24.4866 4.31959 24.4866C4.31967 24.4866 4.31976 24.4866 4.31984 24.4866C4.31992 24.4866 4.32001 24.4866 4.32009 24.4866C4.32018 24.4866 4.32026 24.4866 4.32034 24.4866C4.32043 24.4866 4.32051 24.4866 4.3206 24.4866C4.32068 24.4866 4.32077 24.4866 4.32085 24.4866C4.32094 24.4866 4.32102 24.4866 4.32111 24.4866C4.32119 24.4866 4.32128 24.4866 4.32136 24.4866C4.32145 24.4866 4.32153 24.4866 4.32162 24.4866C4.3217 24.4866 4.32179 24.4866 4.32187 24.4866C4.32196 24.4866 4.32205 24.4866 4.32213 24.4866C4.32222 24.4866 4.3223 24.4866 4.32239 24.4866C4.32248 24.4866 4.32256 24.4866 4.32265 24.4866C4.32274 24.4866 4.32282 24.4866 4.32291 24.4866C4.323 24.4866 4.32308 24.4866 4.32317 24.4866C4.32326 24.4866 4.32334 24.4866 4.32343 24.4866C4.32352 24.4866 4.32361 24.4866 4.32369 24.4866C4.32378 24.4866 4.32387 24.4866 4.32396 24.4866C4.32404 24.4866 4.32413 24.4866 4.32422 24.4866C4.32431 24.4866 4.3244 24.4866 4.32448 24.4866C4.32457 24.4866 4.32466 24.4866 4.32475 24.4866C4.32484 24.4866 4.32492 24.4866 4.32501 24.4866C4.3251 24.4866 4.32519 24.4866 4.32528 24.4866C4.32537 24.4866 4.32546 24.4866 4.32555 24.4866C4.32564 24.4866 4.32572 24.4866 4.32581 24.4866C4.3259 24.4866 4.32599 24.4866 4.32608 24.4866C4.32617 24.4866 4.32626 24.4866 4.32635 24.4866C4.32644 24.4866 4.32653 24.4866 4.32662 24.4866C4.32671 24.4866 4.3268 24.4866 4.32689 24.4866C4.32698 24.4866 4.32707 24.4866 4.32716 24.4866C4.32725 24.4866 4.32734 24.4866 4.32743 24.4866C4.32752 24.4866 4.32762 24.4866 4.32771 24.4866C4.3278 24.4866 4.32789 24.4866 4.32798 24.4866C4.32807 24.4866 4.32816 24.4866 4.32825 24.4866C4.32835 24.4866 4.32844 24.4866 4.32853 24.4866C4.32862 24.4866 4.32871 24.4866 4.3288 24.4866C4.3289 24.4866 4.32899 24.4866 4.32908 24.4866C4.32917 24.4866 4.32926 24.4866 4.32936 24.4866C4.32945 24.4866 4.32954 24.4866 4.32963 24.4866C4.32973 24.4866 4.32982 24.4866 4.32991 24.4866C4.33 24.4866 4.3301 24.4866 4.33019 24.4866C4.33028 24.4866 4.33038 24.4866 4.33047 24.4866C4.33056 24.4866 4.33066 24.4866 4.33075 24.4866C4.33084 24.4866 4.33094 24.4866 4.33103 24.4866C4.33112 24.4866 4.33122 24.4866 4.33131 24.4866C4.3314 24.4866 4.3315 24.4866 4.33159 24.4866C4.33169 24.4866 4.33178 24.4866 4.33188 24.4866C4.33197 24.4866 4.33206 24.4866 4.33216 24.4866C4.33225 24.4866 4.33235 24.4866 4.33244 24.4866C4.33254 24.4866 4.33263 24.4866 4.33273 24.4866C4.33282 24.4866 4.33292 24.4866 4.33301 24.4866C4.33311 24.4866 4.3332 24.4866 4.3333 24.4866C4.33339 24.4866 4.33349 24.4866 4.33358 24.4866C4.33368 24.4866 4.33378 24.4866 4.33387 24.4866C4.33397 24.4866 4.33406 24.4866 4.33416 24.4866C4.33426 24.4866 4.33435 24.4866 4.33445 24.4866C4.33454 24.4866 4.33464 24.4866 4.33474 24.4866C4.33483 24.4866 4.33493 24.4866 4.33503 24.4866C4.33512 24.4866 4.33522 24.4866 4.33532 24.4866C4.33541 24.4866 4.33551 24.4866 4.33561 24.4866C4.33571 24.4866 4.3358 24.4866 4.3359 24.4866C4.336 24.4866 4.3361 24.4866 4.33619 24.4866C4.33629 24.4866 4.33639 24.4866 4.33649 24.4866C4.33658 24.4866 4.33668 24.4866 4.33678 24.4866C4.33688 24.4866 4.33698 24.4866 4.33707 24.4866C4.33717 24.4866 4.33727 24.4866 4.33737 24.4866C4.33747 24.4866 4.33757 24.4866 4.33766 24.4866C4.33776 24.4866 4.33786 24.4866 4.33796 24.4866C4.33806 24.4866 4.33816 24.4866 4.33826 24.4866C4.33836 24.4866 4.33846 24.4866 4.33855 24.4866C4.33865 24.4866 4.33875 24.4866 4.33885 24.4866C4.33895 24.4866 4.33905 24.4866 4.33915 24.4866C4.33925 24.4866 4.33935 24.4866 4.33945 24.4866C4.33955 24.4866 4.33965 24.4866 4.33975 24.4866C4.33985 24.4866 4.33995 24.4866 4.34005 24.4866C4.34015 24.4866 4.34025 24.4866 4.34035 24.4866C4.34045 24.4866 4.34055 24.4866 4.34065 24.4866C4.34076 24.4866 4.34086 24.4866 4.34096 24.4866C4.34106 24.4866 4.34116 24.4866 4.34126 24.4866C4.34136 24.4866 4.34146 24.4866 4.34156 24.4866C4.34166 24.4866 4.34177 24.4866 4.34187 24.4866C4.34197 24.4866 4.34207 24.4866 4.34217 24.4866C4.34227 24.4866 4.34238 24.4866 4.34248 24.4866C4.34258 24.4866 4.34268 24.4866 4.34278 24.4866C4.34289 24.4866 4.34299 24.4866 4.34309 24.4866C4.34319 24.4866 4.3433 24.4866 4.3434 24.4866C4.3435 24.4866 4.3436 24.4866 4.34371 24.4866C4.34381 24.4866 4.34391 24.4866 4.34401 24.4866C4.34412 24.4866 4.34422 24.4866 4.34432 24.4866C4.34443 24.4866 4.34453 24.4866 4.34463 24.4866C4.34474 24.4866 4.34484 24.4866 4.34494 24.4866C4.34505 24.4866 4.34515 24.4866 4.34525 24.4866C4.34536 24.4866 4.34546 24.4866 4.34557 24.4866C4.34567 24.4866 4.34577 24.4866 4.34588 24.4866C4.34598 24.4866 4.34609 24.4866 4.34619 24.4866C4.3463 24.4866 4.3464 24.4866 4.3465 24.4866C4.34661 24.4866 4.34671 24.4866 4.34682 24.4866C4.34692 24.4866 4.34703 24.4866 4.34713 24.4866C4.34724 24.4866 4.34734 24.4866 4.34745 24.4866C4.34755 24.4866 4.34766 24.4866 4.34776 24.4866C4.34787 24.4866 4.34797 24.4866 4.34808 24.4866C4.34818 24.4866 4.34829 24.4866 4.3484 24.4866C4.3485 24.4866 4.34861 24.4866 4.34871 24.4866C4.34882 24.4866 4.34892 24.4866 4.34903 24.4866C4.34914 24.4866 4.34924 24.4866 4.34935 24.4866C4.34946 24.4866 4.34956 24.4866 4.34967 24.4866C4.34977 24.4866 4.34988 24.4866 4.34999 24.4866C4.35009 24.4866 4.3502 24.4866 4.35031 24.4866C4.35042 24.4866 4.35052 24.4866 4.35063 24.4866C4.35074 24.4866 4.35084 24.4866 4.35095 24.4866C4.35106 24.4866 4.35116 24.4866 4.35127 24.4866C4.35138 24.4866 4.35149 24.4866 4.35159 24.4866C4.3517 24.4866 4.35181 24.4866 4.35192 24.4866C4.35203 24.4866 4.35213 24.4866 4.35224 24.4866C4.35235 24.4866 4.35246 24.4866 4.35257 24.4866C4.35267 24.4866 4.35278 24.4866 4.35289 24.4866C4.353 24.4866 4.35311 24.4866 4.35321 24.4866C4.35332 24.4866 4.35343 24.4866 4.35354 24.4866C4.35365 24.4866 4.35376 24.4866 4.35387 24.4866C4.35398 24.4866 4.35408 24.4866 4.35419 24.4866C4.3543 24.4866 4.35441 24.4866 4.35452 24.4866C4.35463 24.4866 4.35474 24.4866 4.35485 24.4866C4.35496 24.4866 4.35507 24.4866 4.35518 24.4866C4.35529 24.4866 4.3554 24.4866 4.35551 24.4866C4.35562 24.4866 4.35573 24.4866 4.35584 24.4866C4.35595 24.4866 4.35606 24.4866 4.35617 24.4866C4.35628 24.4866 4.35639 24.4866 4.3565 24.4866C4.35661 24.4866 4.35672 24.4866 4.35683 24.4866C4.35694 24.4866 4.35705 24.4866 4.35716 24.4866C4.35727 24.4866 4.35738 24.4866 4.35749 24.4866C4.3576 24.4866 4.35771 24.4866 4.35782 24.4866C4.35794 24.4866 4.35805 24.4866 4.35816 24.4866C4.35827 24.4866 4.35838 24.4866 4.35849 24.4866C4.3586 24.4866 4.35871 24.4866 4.35883 24.4866C4.35894 24.4866 4.35905 24.4866 4.35916 24.4866C4.35927 24.4866 4.35938 24.4866 4.3595 24.4866C4.35961 24.4866 4.35972 24.4866 4.35983 24.4866C4.35994 24.4866 4.36006 24.4866 4.36017 24.4866C4.36028 24.4866 4.36039 24.4866 4.36051 24.4866C4.36062 24.4866 4.36073 24.4866 4.36084 24.4866C4.36096 24.4866 4.36107 24.4866 4.36118 24.4866C4.36129 24.4866 4.36141 24.4866 4.36152 24.4866C4.36163 24.4866 4.36175 24.4866 4.36186 24.4866C4.36197 24.4866 4.36209 24.4866 4.3622 24.4866C4.36231 24.4866 4.36243 24.4866 4.36254 24.4866C4.36265 24.4866 4.36277 24.4866 4.36288 24.4866C4.36299 24.4866 4.36311 24.4866 4.36322 24.4866C4.36333 24.4866 4.36345 24.4866 4.36356 24.4866C4.36368 24.4866 4.36379 24.4866 4.3639 24.4866C4.36402 24.4866 4.36413 24.4866 4.36425 24.4866C4.36436 24.4866 4.36447 24.4866 4.36459 24.4866C4.3647 24.4866 4.36482 24.4866 4.36493 24.4866C4.36505 24.4866 4.36516 24.4866 4.36528 24.4866C4.36539 24.4866 4.36551 24.4866 4.36562 24.4866C4.36574 24.4866 4.36585 24.4866 4.36597 24.4866C4.36608 24.4866 4.3662 24.4866 4.36631 24.4866C4.36643 24.4866 4.36654 24.4866 4.36666 24.4866C4.36677 24.4866 4.36689 24.4866 4.367 24.4866C4.36712 24.4866 4.36724 24.4866 4.36735 24.4866C4.36747 24.4866 4.36758 24.4866 4.3677 24.4866C4.36781 24.4866 4.36793 24.4866 4.36805 24.4866C4.36816 24.4866 4.36828 24.4866 4.3684 24.4866C4.36851 24.4866 4.36863 24.4866 4.36874 24.4866C4.36886 24.4866 4.36898 24.4866 4.36909 24.4866C4.36921 24.4866 4.36933 24.4866 4.36944 24.4866C4.36956 24.4866 4.36968 24.4866 4.36979 24.4866C4.36991 24.4866 4.37003 24.4866 4.37014 24.4866C4.37026 24.4866 4.37038 24.4866 4.3705 24.4866C4.37061 24.4866 4.37073 24.4866 4.37085 24.4866C4.37096 24.4866 4.37108 24.4866 4.3712 24.4866C4.37132 24.4866 4.37143 24.4866 4.37155 24.4866C4.37167 24.4866 4.37179 24.4866 4.37191 24.4866C4.37202 24.4866 4.37214 24.4866 4.37226 24.4866C4.37238 24.4866 4.3725 24.4866 4.37261 24.4866C4.37273 24.4866 4.37285 24.4866 4.37297 24.4866C4.37309 24.4866 4.3732 24.4866 4.37332 24.4866C4.37344 24.4866 4.37356 24.4866 4.37368 24.4866C4.3738 24.4866 4.37392 24.4866 4.37403 24.4866C4.37415 24.4866 4.37427 24.4866 4.37439 24.4866C4.37451 24.4866 4.37463 24.4866 4.37475 24.4866C4.37487 24.4866 4.37499 24.4866 4.3751 24.4866C4.37522 24.4866 4.37534 24.4866 4.37546 24.4866C4.37558 24.4866 4.3757 24.4866 4.37582 24.4866C4.37594 24.4866 4.37606 24.4866 4.37618 24.4866C4.3763 24.4866 4.37642 24.4866 4.37654 24.4866C4.37666 24.4866 4.37678 24.4866 4.3769 24.4866C4.37702 24.4866 4.37714 24.4866 4.37726 24.4866C4.37738 24.4866 4.3775 24.4866 4.37762 24.4866C4.37774 24.4866 4.37786 24.4866 4.37798 24.4866C4.3781 24.4866 4.37822 24.4866 4.37834 24.4866C4.37846 24.4866 4.37858 24.4866 4.3787 24.4866C4.37882 24.4866 4.37894 24.4866 4.37906 24.4866C4.37918 24.4866 4.37931 24.4866 4.37943 24.4866C4.37955 24.4866 4.37967 24.4866 4.37979 24.4866C4.37991 24.4866 4.38003 24.4866 4.38015 24.4866C4.38027 24.4866 4.3804 24.4866 4.38052 24.4866C4.38064 24.4866 4.38076 24.4866 4.38088 24.4866C4.381 24.4866 4.38112 24.4866 4.38125 24.4866C4.38137 24.4866 4.38149 24.4866 4.38161 24.4866C4.38173 24.4866 4.38185 24.4866 4.38198 24.4866C4.3821 24.4866 4.38222 24.4866 4.38234 24.4866C4.38246 24.4866 4.38259 24.4866 4.38271 24.4866C4.38283 24.4866 4.38295 24.4866 4.38308 24.4866C4.3832 24.4866 4.38332 24.4866 4.38344 24.4866C4.38356 24.4866 4.38369 24.4866 4.38381 24.4866C4.38393 24.4866 4.38406 24.4866 4.38418 24.4866C4.3843 24.4866 4.38442 24.4866 4.38455 24.4866C4.38467 24.4866 4.38479 24.4866 4.38492 24.4866C4.38504 24.4866 4.38516 24.4866 4.38528 24.4866C4.38541 24.4866 4.38553 24.4866 4.38565 24.4866C4.38578 24.4866 4.3859 24.4866 4.38602 24.4866C4.38615 24.4866 4.38627 24.4866 4.38639 24.4866C4.38652 24.4866 4.38664 24.4866 4.38677 24.4866C4.38689 24.4866 4.38701 24.4866 4.38714 24.4866C4.38726 24.4866 4.38738 24.4866 4.38751 24.4866C4.38763 24.4866 4.38776 24.4866 4.38788 24.4866C4.388 24.4866 4.38813 24.4866 4.38825 24.4866C4.38838 24.4866 4.3885 24.4866 4.38863 24.4866C4.38875 24.4866 4.38887 24.4866 4.389 24.4866C4.38912 24.4866 4.38925 24.4866 4.38937 24.4866C4.3895 24.4866 4.38962 24.4866 4.38975 24.4866C4.38987 24.4866 4.39 24.4866 4.39012 24.4866C4.39025 24.4866 4.39037 24.4866 4.3905 24.4866C4.39062 24.4866 4.39075 24.4866 4.39087 24.4866C4.391 24.4866 4.39112 24.4866 4.39125 24.4866C4.39137 24.4866 4.3915 24.4866 4.39162 24.4866C4.39175 24.4866 4.39187 24.4866 4.392 24.4866C4.39212 24.4866 4.39225 24.4866 4.39237 24.4866C4.3925 24.4866 4.39263 24.4866 4.39275 24.4866C4.39288 24.4866 4.393 24.4866 4.39313 24.4866C4.39326 24.4866 4.39338 24.4866 4.39351 24.4866C4.39363 24.4866 4.39376 24.4866 4.39389 24.4866C4.39401 24.4866 4.39414 24.4866 4.39426 24.4866C4.39439 24.4866 4.39452 24.4866 4.39464 24.4866C4.39477 24.4866 4.3949 24.4866 4.39502 24.4866C4.39515 24.4866 4.39527 24.4866 4.3954 24.4866C4.39553 24.4866 4.39565 24.4866 4.39578 24.4866C4.39591 24.4866 4.39603 24.4866 4.39616 24.4866C4.39629 24.4866 4.39642 24.4866 4.39654 24.4866C4.39667 24.4866 4.3968 24.4866 4.39692 24.4866C4.39705 24.4866 4.39718 24.4866 4.3973 24.4866C4.39743 24.4866 4.39756 24.4866 4.39769 24.4866C4.39781 24.4866 4.39794 24.4866 4.39807 24.4866C4.3982 24.4866 4.39832 24.4866 4.39845 24.4866C4.39858 24.4866 4.39871 24.4866 4.39883 24.4866C4.39896 24.4866 4.39909 24.4866 4.39922 24.4866C4.39934 24.4866 4.39947 24.4866 4.3996 24.4866C4.39973 24.4866 4.39986 24.4866 4.39998 24.4866C4.40011 24.4866 4.40024 24.4866 4.40037 24.4866C4.4005 24.4866 4.40062 24.4866 4.40075 24.4866C4.40088 24.4866 4.40101 24.4866 4.40114 24.4866C4.40127 24.4866 4.40139 24.4866 4.40152 24.4866C4.40165 24.4866 4.40178 24.4866 4.40191 24.4866C4.40204 24.4866 4.40217 24.4866 4.40229 24.4866C4.40242 24.4866 4.40255 24.4866 4.40268 24.4866C4.40281 24.4866 4.40294 24.4866 4.40307 24.4866C4.4032 24.4866 4.40332 24.4866 4.40345 24.4866C4.40358 24.4866 4.40371 24.4866 4.40384 24.4866C4.40397 24.4866 4.4041 24.4866 4.40423 24.4866C4.40436 24.4866 4.40449 24.4866 4.40462 24.4866C4.40474 24.4866 4.40487 24.4866 4.405 24.4866C4.40513 24.4866 4.40526 24.4866 4.40539 24.4866C4.40552 24.4866 4.40565 24.4866 4.40578 24.4866C4.40591 24.4866 4.40604 24.4866 4.40617 24.4866C4.4063 24.4866 4.40643 24.4866 4.40656 24.4866C4.40669 24.4866 4.40682 24.4866 4.40695 24.4866C4.40708 24.4866 4.40721 24.4866 4.40734 24.4866C4.40747 24.4866 4.4076 24.4866 4.40773 24.4866C4.40786 24.4866 4.40799 24.4866 4.40812 24.4866C4.40825 24.4866 4.40838 24.4866 4.40851 24.4866C4.40864 24.4866 4.40877 24.4866 4.4089 24.4866C4.40903 24.4866 4.40916 24.4866 4.40929 24.4866C4.40942 24.4866 4.40956 24.4866 4.40969 24.4866C4.40982 24.4866 4.40995 24.4866 4.41008 24.4866C4.41021 24.4866 4.41034 24.4866 4.41047 24.4866C4.4106 24.4866 4.41073 24.4866 4.41086 24.4866C4.41099 24.4866 4.41113 24.4866 4.41126 24.4866C4.41139 24.4866 4.41152 24.4866 4.41165 24.4866C4.41178 24.4866 4.41191 24.4866 4.41204 24.4866C4.41217 24.4866 4.41231 24.4866 4.41244 24.4866C4.41257 24.4866 4.4127 24.4866 4.41283 24.4866C4.41296 24.4866 4.41309 24.4866 4.41323 24.4866C4.41336 24.4866 4.41349 24.4866 4.41362 24.4866C4.41375 24.4866 4.41388 24.4866 4.41402 24.4866C4.41415 24.4866 4.41428 24.4866 4.41441 24.4866C4.41454 24.4866 4.41467 24.4866 4.41481 24.4866C4.41494 24.4866 4.41507 24.4866 4.4152 24.4866C4.41533 24.4866 4.41547 24.4866 4.4156 24.4866C4.41573 24.4866 4.41586 24.4866 4.416 24.4866C4.41613 24.4866 4.41626 24.4866 4.41639 24.4866C4.41652 24.4866 4.41666 24.4866 4.41679 24.4866C4.41692 24.4866 4.41705 24.4866 4.41719 24.4866C4.41732 24.4866 4.41745 24.4866 4.41758 24.4866C4.41772 24.4866 4.41785 24.4866 4.41798 24.4866C4.41811 24.4866 4.41825 24.4866 4.41838 24.4866C4.41851 24.4866 4.41865 24.4866 4.41878 24.4866C4.41891 24.4866 4.41904 24.4866 4.41918 24.4866C4.41931 24.4866 4.41944 24.4866 4.41958 24.4866C4.41971 24.4866 4.41984 24.4866 4.41998 24.4866C4.42011 24.4866 4.42024 24.4866 4.42037 24.4866C4.42051 24.4866 4.42064 24.4866 4.42077 24.4866C4.42091 24.4866 4.42104 24.4866 4.42117 24.4866C4.42131 24.4866 4.42144 24.4866 4.42157 24.4866C4.42171 24.4866 4.42184 24.4866 4.42197 24.4866C4.42211 24.4866 4.42224 24.4866 4.42238 24.4866C4.42251 24.4866 4.42264 24.4866 4.42278 24.4866C4.42291 24.4866 4.42304 24.4866 4.42318 24.4866C4.42331 24.4866 4.42345 24.4866 4.42358 24.4866C4.42371 24.4866 4.42385 24.4866 4.42398 24.4866C4.42411 24.4866 4.42425 24.4866 4.42438 24.4866C4.42452 24.4866 4.42465 24.4866 4.42479 24.4866C4.42492 24.4866 4.42505 24.4866 4.42519 24.4866C4.42532 24.4866 4.42546 24.4866 4.42559 24.4866C4.42572 24.4866 4.42586 24.4866 4.42599 24.4866C4.42613 24.4866 4.42626 24.4866 4.4264 24.4866C4.42653 24.4866 4.42667 24.4866 4.4268 24.4866C4.42693 24.4866 4.42707 24.4866 4.4272 24.4866C4.42734 24.4866 4.42747 24.4866 4.42761 24.4866C4.42774 24.4866 4.42788 24.4866 4.42801 24.4866C4.42815 24.4866 4.42828 24.4866 4.42842 24.4866C4.42855 24.4866 4.42868 24.4866 4.42882 24.4866C4.42895 24.4866 4.42909 24.4866 4.42922 24.4866C4.42936 24.4866 4.42949 24.4866 4.42963 24.4866C4.42976 24.4866 4.4299 24.4866 4.43003 24.4866C4.43017 24.4866 4.4303 24.4866 4.43044 24.4866C4.43058 24.4866 4.43071 24.4866 4.43085 24.4866C4.43098 24.4866 4.43112 24.4866 4.43125 24.4866C4.43139 24.4866 4.43152 24.4866 4.43166 24.4866C4.43179 24.4866 4.43193 24.4866 4.43206 24.4866C4.4322 24.4866 4.43233 24.4866 4.43247 24.4866C4.43261 24.4866 4.43274 24.4866 4.43288 24.4866C4.43301 24.4866 4.43315 24.4866 4.43328 24.4866C4.43342 24.4866 4.43356 24.4866 4.43369 24.4866C4.43383 24.4866 4.43396 24.4866 4.4341 24.4866C4.43423 24.4866 4.43437 24.4866 4.43451 24.4866C4.43464 24.4866 4.43478 24.4866 4.43491 24.4866C4.43505 24.4866 4.43519 24.4866 4.43532 24.4866C4.43546 24.4866 4.43559 24.4866 4.43573 24.4866C4.43587 24.4866 4.436 24.4866 4.43614 24.4866C4.43627 24.4866 4.43641 24.4866 4.43655 24.4866C4.43668 24.4866 4.43682 24.4866 4.43696 24.4866C4.43709 24.4866 4.43723 24.4866 4.43736 24.4866C4.4375 24.4866 4.43764 24.4866 4.43777 24.4866C4.43791 24.4866 4.43805 24.4866 4.43818 24.4866C4.43832 24.4866 4.43846 24.4866 4.43859 24.4866C4.43873 24.4866 4.43887 24.4866 4.439 24.4866C4.43914 24.4866 4.43927 24.4866 4.43941 24.4866C4.43955 24.4866 4.43968 24.4866 4.43982 24.4866C4.43996 24.4866 4.44009 24.4866 4.44023 24.4866C4.44037 24.4866 4.44051 24.4866 4.44064 24.4866C4.44078 24.4866 4.44092 24.4866 4.44105 24.4866C4.44119 24.4866 4.44133 24.4866 4.44146 24.4866C4.4416 24.4866 4.44174 24.4866 4.44187 24.4866C4.44201 24.4866 4.44215 24.4866 4.44229 24.4866C4.44242 24.4866 4.44256 24.4866 4.4427 24.4866C4.44283 24.4866 4.44297 24.4866 4.44311 24.4866C4.44325 24.4866 4.44338 24.4866 4.44352 24.4866C4.44366 24.4866 4.44379 24.4866 4.44393 24.4866C4.44407 24.4866 4.44421 24.4866 4.44434 24.4866C4.44448 24.4866 4.44462 24.4866 4.44476 24.4866C4.44489 24.4866 4.44503 24.4866 4.44517 24.4866C4.44531 24.4866 4.44544 24.4866 4.44558 24.4866C4.44572 24.4866 4.44586 24.4866 4.44599 24.4866C4.44613 24.4866 4.44627 24.4866 4.44641 24.4866C4.44654 24.4866 4.44668 24.4866 4.44682 24.4866C4.44696 24.4866 4.44709 24.4866 4.44723 24.4866C4.44737 24.4866 4.44751 24.4866 4.44764 24.4866C4.44778 24.4866 4.44792 24.4866 4.44806 24.4866C4.4482 24.4866 4.44833 24.4866 4.44847 24.4866C4.44861 24.4866 4.44875 24.4866 4.44888 24.4866C4.44902 24.4866 4.44916 24.4866 4.4493 24.4866C4.44944 24.4866 4.44957 24.4866 4.44971 24.4866C4.44985 24.4866 4.44999 24.4866 4.45013 24.4866C4.45026 24.4866 4.4504 24.4866 4.45054 24.4866C4.45068 24.4866 4.45082 24.4866 4.45096 24.4866C4.45109 24.4866 4.45123 24.4866 4.45137 24.4866C4.45151 24.4866 4.45165 24.4866 4.45178 24.4866C4.45192 24.4866 4.45206 24.4866 4.4522 24.4866C4.45234 24.4866 4.45248 24.4866 4.45261 24.4866C4.45275 24.4866 4.45289 24.4866 4.45303 24.4866C4.45317 24.4866 4.45331 24.4866 4.45344 24.4866C4.45358 24.4866 4.45372 24.4866 4.45386 24.4866C4.454 24.4866 4.45414 24.4866 4.45427 24.4866C4.45441 24.4866 4.45455 24.4866 4.45469 24.4866C4.45483 24.4866 4.45497 24.4866 4.45511 24.4866C4.45524 24.4866 4.45538 24.4866 4.45552 24.4866C4.45566 24.4866 4.4558 24.4866 4.45594 24.4866C4.45608 24.4866 4.45622 24.4866 4.45635 24.4866C4.45649 24.4866 4.45663 24.4866 4.45677 24.4866C4.45691 24.4866 4.45705 24.4866 4.45719 24.4866C4.45732 24.4866 4.45746 24.4866 4.4576 24.4866C4.45774 24.4866 4.45788 24.4866 4.45802 24.4866C4.45816 24.4866 4.4583 24.4866 4.45844 24.4866C4.45857 24.4866 4.45871 24.4866 4.45885 24.4866C4.45899 24.4866 4.45913 24.4866 4.45927 24.4866C4.45941 24.4866 4.45955 24.4866 4.45969 24.4866C4.45982 24.4866 4.45996 24.4866 4.4601 24.4866C4.46024 24.4866 4.46038 24.4866 4.46052 24.4866C4.46066 24.4866 4.4608 24.4866 4.46094 24.4866C4.46108 24.4866 4.46122 24.4866 4.46135 24.4866C4.46149 24.4866 4.46163 24.4866 4.46177 24.4866C4.46191 24.4866 4.46205 24.4866 4.46219 24.4866C4.46233 24.4866 4.46247 24.4866 4.46261 24.4866C4.46275 24.4866 4.46289 24.4866 4.46302 24.4866C4.46316 24.4866 4.4633 24.4866 4.46344 24.4866C4.46358 24.4866 4.46372 24.4866 4.46386 24.4866C4.464 24.4866 4.46414 24.4866 4.46428 24.4866C4.46442 24.4866 4.46456 24.4866 4.4647 24.4866C4.46484 24.4866 4.46498 24.4866 4.46511 24.4866C4.46525 24.4866 4.46539 24.4866 4.46553 24.4866C4.46567 24.4866 4.46581 24.4866 4.46595 24.4866C4.46609 24.4866 4.46623 24.4866 4.46637 24.4866C4.46651 24.4866 4.46665 24.4866 4.46679 24.4866C4.46693 24.4866 4.46707 24.4866 4.46721 24.4866C4.46735 24.4866 4.46749 24.4866 4.46763 24.4866C4.46776 24.4866 4.4679 24.4866 4.46804 24.4866C4.46818 24.4866 4.46832 24.4866 4.46846 24.4866C4.4686 24.4866 4.46874 24.4866 4.46888 24.4866C4.46902 24.4866 4.46916 24.4866 4.4693 24.4866C4.46944 24.4866 4.46958 24.4866 4.46972 24.4866C4.46986 24.4866 4.47 24.4866 4.47014 24.4866C4.47028 24.4866 4.47042 24.4866 4.47056 24.4866C4.4707 24.4866 4.47084 24.4866 4.47098 24.4866C4.47112 24.4866 4.47126 24.4866 4.4714 24.4866C4.47154 24.4866 4.47168 24.4866 4.47182 24.4866C4.47195 24.4866 4.47209 24.4866 4.47223 24.4866C4.47237 24.4866 4.47251 24.4866 4.47265 24.4866C4.47279 24.4866 4.47293 24.4866 4.47307 24.4866C4.47321 24.4866 4.47335 24.4866 4.47349 24.4866C4.47363 24.4866 4.47377 24.4866 4.47391 24.4866C4.47405 24.4866 4.47419 24.4866 4.47433 24.4866C4.47447 24.4866 4.47461 24.4866 4.47475 24.4866C4.47489 24.4866 4.47503 24.4866 4.47517 24.4866C4.47531 24.4866 4.47545 24.4866 4.47559 24.4866C4.47573 24.4866 4.47587 24.4866 4.47601 24.4866C4.47615 24.4866 4.47629 24.4866 4.47643 24.4866C4.47657 24.4866 4.47671 24.4866 4.47685 24.4866C4.47699 24.4866 4.47713 24.4866 4.47727 24.4866C4.47741 24.4866 4.47755 24.4866 4.47769 24.4866C4.47783 24.4866 4.47797 24.4866 4.47811 24.4866C4.47825 24.4866 4.47839 24.4866 4.47853 24.4866C4.47867 24.4866 4.47881 24.4866 4.47895 24.4866C4.47909 24.4866 4.47923 24.4866 4.47937 24.4866C4.47951 24.4866 4.47965 24.4866 4.47979 24.4866C4.47993 24.4866 4.48007 24.4866 4.48021 24.4866C4.48035 24.4866 4.48049 24.4866 4.48063 24.4866C4.48077 24.4866 4.48091 24.4866 4.48105 24.4866C4.48119 24.4866 4.48133 24.4866 4.48147 24.4866C4.48161 24.4866 4.48175 24.4866 4.48189 24.4866C4.48203 24.4866 4.48217 24.4866 4.48231 24.4866C4.48245 24.4866 4.48259 24.4866 4.48273 24.4866C4.48287 24.4866 4.48301 24.4866 4.48315 24.4866C4.48329 24.4866 4.48343 24.4866 4.48357 24.4866C4.48371 24.4866 4.48385 24.4866 4.48399 24.4866C4.48413 24.4866 4.48427 24.4866 4.48441 24.4866C4.48455 24.4866 4.48469 24.4866 4.48483 24.4866C4.48497 24.4866 4.48511 24.4866 4.48525 24.4866C4.48539 24.4866 4.48553 24.4866 4.48567 24.4866C4.48581 24.4866 4.48595 24.4866 4.48609 24.4866C4.48623 24.4866 4.48637 24.4866 4.48651 24.4866C4.48665 24.4866 4.48679 24.4866 4.48694 24.4866V23.4866C4.48679 23.4866 4.48665 23.4866 4.48651 23.4866C4.48637 23.4866 4.48623 23.4866 4.48609 23.4866C4.48595 23.4866 4.48581 23.4866 4.48567 23.4866C4.48553 23.4866 4.48539 23.4866 4.48525 23.4866C4.48511 23.4866 4.48497 23.4866 4.48483 23.4866C4.48469 23.4866 4.48455 23.4866 4.48441 23.4866C4.48427 23.4866 4.48413 23.4866 4.48399 23.4866C4.48385 23.4866 4.48371 23.4866 4.48357 23.4866C4.48343 23.4866 4.48329 23.4866 4.48315 23.4866C4.48301 23.4866 4.48287 23.4866 4.48273 23.4866C4.48259 23.4866 4.48245 23.4866 4.48231 23.4866C4.48217 23.4866 4.48203 23.4866 4.48189 23.4866C4.48175 23.4866 4.48161 23.4866 4.48147 23.4866C4.48133 23.4866 4.48119 23.4866 4.48105 23.4866C4.48091 23.4866 4.48077 23.4866 4.48063 23.4866C4.48049 23.4866 4.48035 23.4866 4.48021 23.4866C4.48007 23.4866 4.47993 23.4866 4.47979 23.4866C4.47965 23.4866 4.47951 23.4866 4.47937 23.4866C4.47923 23.4866 4.47909 23.4866 4.47895 23.4866C4.47881 23.4866 4.47867 23.4866 4.47853 23.4866C4.47839 23.4866 4.47825 23.4866 4.47811 23.4866C4.47797 23.4866 4.47783 23.4866 4.47769 23.4866C4.47755 23.4866 4.47741 23.4866 4.47727 23.4866C4.47713 23.4866 4.47699 23.4866 4.47685 23.4866C4.47671 23.4866 4.47657 23.4866 4.47643 23.4866C4.47629 23.4866 4.47615 23.4866 4.47601 23.4866C4.47587 23.4866 4.47573 23.4866 4.47559 23.4866C4.47545 23.4866 4.47531 23.4866 4.47517 23.4866C4.47503 23.4866 4.47489 23.4866 4.47475 23.4866C4.47461 23.4866 4.47447 23.4866 4.47433 23.4866C4.47419 23.4866 4.47405 23.4866 4.47391 23.4866C4.47377 23.4866 4.47363 23.4866 4.47349 23.4866C4.47335 23.4866 4.47321 23.4866 4.47307 23.4866C4.47293 23.4866 4.47279 23.4866 4.47265 23.4866C4.47251 23.4866 4.47237 23.4866 4.47223 23.4866C4.47209 23.4866 4.47195 23.4866 4.47182 23.4866C4.47168 23.4866 4.47154 23.4866 4.4714 23.4866C4.47126 23.4866 4.47112 23.4866 4.47098 23.4866C4.47084 23.4866 4.4707 23.4866 4.47056 23.4866C4.47042 23.4866 4.47028 23.4866 4.47014 23.4866C4.47 23.4866 4.46986 23.4866 4.46972 23.4866C4.46958 23.4866 4.46944 23.4866 4.4693 23.4866C4.46916 23.4866 4.46902 23.4866 4.46888 23.4866C4.46874 23.4866 4.4686 23.4866 4.46846 23.4866C4.46832 23.4866 4.46818 23.4866 4.46804 23.4866C4.4679 23.4866 4.46776 23.4866 4.46763 23.4866C4.46749 23.4866 4.46735 23.4866 4.46721 23.4866C4.46707 23.4866 4.46693 23.4866 4.46679 23.4866C4.46665 23.4866 4.46651 23.4866 4.46637 23.4866C4.46623 23.4866 4.46609 23.4866 4.46595 23.4866C4.46581 23.4866 4.46567 23.4866 4.46553 23.4866C4.46539 23.4866 4.46525 23.4866 4.46511 23.4866C4.46498 23.4866 4.46484 23.4866 4.4647 23.4866C4.46456 23.4866 4.46442 23.4866 4.46428 23.4866C4.46414 23.4866 4.464 23.4866 4.46386 23.4866C4.46372 23.4866 4.46358 23.4866 4.46344 23.4866C4.4633 23.4866 4.46316 23.4866 4.46302 23.4866C4.46289 23.4866 4.46275 23.4866 4.46261 23.4866C4.46247 23.4866 4.46233 23.4866 4.46219 23.4866C4.46205 23.4866 4.46191 23.4866 4.46177 23.4866C4.46163 23.4866 4.46149 23.4866 4.46135 23.4866C4.46122 23.4866 4.46108 23.4866 4.46094 23.4866C4.4608 23.4866 4.46066 23.4866 4.46052 23.4866C4.46038 23.4866 4.46024 23.4866 4.4601 23.4866C4.45996 23.4866 4.45982 23.4866 4.45969 23.4866C4.45955 23.4866 4.45941 23.4866 4.45927 23.4866C4.45913 23.4866 4.45899 23.4866 4.45885 23.4866C4.45871 23.4866 4.45857 23.4866 4.45844 23.4866C4.4583 23.4866 4.45816 23.4866 4.45802 23.4866C4.45788 23.4866 4.45774 23.4866 4.4576 23.4866C4.45746 23.4866 4.45732 23.4866 4.45719 23.4866C4.45705 23.4866 4.45691 23.4866 4.45677 23.4866C4.45663 23.4866 4.45649 23.4866 4.45635 23.4866C4.45622 23.4866 4.45608 23.4866 4.45594 23.4866C4.4558 23.4866 4.45566 23.4866 4.45552 23.4866C4.45538 23.4866 4.45524 23.4866 4.45511 23.4866C4.45497 23.4866 4.45483 23.4866 4.45469 23.4866C4.45455 23.4866 4.45441 23.4866 4.45427 23.4866C4.45414 23.4866 4.454 23.4866 4.45386 23.4866C4.45372 23.4866 4.45358 23.4866 4.45344 23.4866C4.45331 23.4866 4.45317 23.4866 4.45303 23.4866C4.45289 23.4866 4.45275 23.4866 4.45261 23.4866C4.45248 23.4866 4.45234 23.4866 4.4522 23.4866C4.45206 23.4866 4.45192 23.4866 4.45178 23.4866C4.45165 23.4866 4.45151 23.4866 4.45137 23.4866C4.45123 23.4866 4.45109 23.4866 4.45096 23.4866C4.45082 23.4866 4.45068 23.4866 4.45054 23.4866C4.4504 23.4866 4.45026 23.4866 4.45013 23.4866C4.44999 23.4866 4.44985 23.4866 4.44971 23.4866C4.44957 23.4866 4.44944 23.4866 4.4493 23.4866C4.44916 23.4866 4.44902 23.4866 4.44888 23.4866C4.44875 23.4866 4.44861 23.4866 4.44847 23.4866C4.44833 23.4866 4.4482 23.4866 4.44806 23.4866C4.44792 23.4866 4.44778 23.4866 4.44764 23.4866C4.44751 23.4866 4.44737 23.4866 4.44723 23.4866C4.44709 23.4866 4.44696 23.4866 4.44682 23.4866C4.44668 23.4866 4.44654 23.4866 4.44641 23.4866C4.44627 23.4866 4.44613 23.4866 4.44599 23.4866C4.44586 23.4866 4.44572 23.4866 4.44558 23.4866C4.44544 23.4866 4.44531 23.4866 4.44517 23.4866C4.44503 23.4866 4.44489 23.4866 4.44476 23.4866C4.44462 23.4866 4.44448 23.4866 4.44434 23.4866C4.44421 23.4866 4.44407 23.4866 4.44393 23.4866C4.44379 23.4866 4.44366 23.4866 4.44352 23.4866C4.44338 23.4866 4.44325 23.4866 4.44311 23.4866C4.44297 23.4866 4.44283 23.4866 4.4427 23.4866C4.44256 23.4866 4.44242 23.4866 4.44229 23.4866C4.44215 23.4866 4.44201 23.4866 4.44187 23.4866C4.44174 23.4866 4.4416 23.4866 4.44146 23.4866C4.44133 23.4866 4.44119 23.4866 4.44105 23.4866C4.44092 23.4866 4.44078 23.4866 4.44064 23.4866C4.44051 23.4866 4.44037 23.4866 4.44023 23.4866C4.44009 23.4866 4.43996 23.4866 4.43982 23.4866C4.43968 23.4866 4.43955 23.4866 4.43941 23.4866C4.43927 23.4866 4.43914 23.4866 4.439 23.4866C4.43887 23.4866 4.43873 23.4866 4.43859 23.4866C4.43846 23.4866 4.43832 23.4866 4.43818 23.4866C4.43805 23.4866 4.43791 23.4866 4.43777 23.4866C4.43764 23.4866 4.4375 23.4866 4.43736 23.4866C4.43723 23.4866 4.43709 23.4866 4.43696 23.4866C4.43682 23.4866 4.43668 23.4866 4.43655 23.4866C4.43641 23.4866 4.43627 23.4866 4.43614 23.4866C4.436 23.4866 4.43587 23.4866 4.43573 23.4866C4.43559 23.4866 4.43546 23.4866 4.43532 23.4866C4.43519 23.4866 4.43505 23.4866 4.43491 23.4866C4.43478 23.4866 4.43464 23.4866 4.43451 23.4866C4.43437 23.4866 4.43423 23.4866 4.4341 23.4866C4.43396 23.4866 4.43383 23.4866 4.43369 23.4866C4.43356 23.4866 4.43342 23.4866 4.43328 23.4866C4.43315 23.4866 4.43301 23.4866 4.43288 23.4866C4.43274 23.4866 4.43261 23.4866 4.43247 23.4866C4.43233 23.4866 4.4322 23.4866 4.43206 23.4866C4.43193 23.4866 4.43179 23.4866 4.43166 23.4866C4.43152 23.4866 4.43139 23.4866 4.43125 23.4866C4.43112 23.4866 4.43098 23.4866 4.43085 23.4866C4.43071 23.4866 4.43058 23.4866 4.43044 23.4866C4.4303 23.4866 4.43017 23.4866 4.43003 23.4866C4.4299 23.4866 4.42976 23.4866 4.42963 23.4866C4.42949 23.4866 4.42936 23.4866 4.42922 23.4866C4.42909 23.4866 4.42895 23.4866 4.42882 23.4866C4.42868 23.4866 4.42855 23.4866 4.42842 23.4866C4.42828 23.4866 4.42815 23.4866 4.42801 23.4866C4.42788 23.4866 4.42774 23.4866 4.42761 23.4866C4.42747 23.4866 4.42734 23.4866 4.4272 23.4866C4.42707 23.4866 4.42693 23.4866 4.4268 23.4866C4.42667 23.4866 4.42653 23.4866 4.4264 23.4866C4.42626 23.4866 4.42613 23.4866 4.42599 23.4866C4.42586 23.4866 4.42572 23.4866 4.42559 23.4866C4.42546 23.4866 4.42532 23.4866 4.42519 23.4866C4.42505 23.4866 4.42492 23.4866 4.42479 23.4866C4.42465 23.4866 4.42452 23.4866 4.42438 23.4866C4.42425 23.4866 4.42411 23.4866 4.42398 23.4866C4.42385 23.4866 4.42371 23.4866 4.42358 23.4866C4.42345 23.4866 4.42331 23.4866 4.42318 23.4866C4.42304 23.4866 4.42291 23.4866 4.42278 23.4866C4.42264 23.4866 4.42251 23.4866 4.42238 23.4866C4.42224 23.4866 4.42211 23.4866 4.42197 23.4866C4.42184 23.4866 4.42171 23.4866 4.42157 23.4866C4.42144 23.4866 4.42131 23.4866 4.42117 23.4866C4.42104 23.4866 4.42091 23.4866 4.42077 23.4866C4.42064 23.4866 4.42051 23.4866 4.42037 23.4866C4.42024 23.4866 4.42011 23.4866 4.41998 23.4866C4.41984 23.4866 4.41971 23.4866 4.41958 23.4866C4.41944 23.4866 4.41931 23.4866 4.41918 23.4866C4.41904 23.4866 4.41891 23.4866 4.41878 23.4866C4.41865 23.4866 4.41851 23.4866 4.41838 23.4866C4.41825 23.4866 4.41811 23.4866 4.41798 23.4866C4.41785 23.4866 4.41772 23.4866 4.41758 23.4866C4.41745 23.4866 4.41732 23.4866 4.41719 23.4866C4.41705 23.4866 4.41692 23.4866 4.41679 23.4866C4.41666 23.4866 4.41652 23.4866 4.41639 23.4866C4.41626 23.4866 4.41613 23.4866 4.416 23.4866C4.41586 23.4866 4.41573 23.4866 4.4156 23.4866C4.41547 23.4866 4.41533 23.4866 4.4152 23.4866C4.41507 23.4866 4.41494 23.4866 4.41481 23.4866C4.41467 23.4866 4.41454 23.4866 4.41441 23.4866C4.41428 23.4866 4.41415 23.4866 4.41402 23.4866C4.41388 23.4866 4.41375 23.4866 4.41362 23.4866C4.41349 23.4866 4.41336 23.4866 4.41323 23.4866C4.41309 23.4866 4.41296 23.4866 4.41283 23.4866C4.4127 23.4866 4.41257 23.4866 4.41244 23.4866C4.41231 23.4866 4.41217 23.4866 4.41204 23.4866C4.41191 23.4866 4.41178 23.4866 4.41165 23.4866C4.41152 23.4866 4.41139 23.4866 4.41126 23.4866C4.41113 23.4866 4.41099 23.4866 4.41086 23.4866C4.41073 23.4866 4.4106 23.4866 4.41047 23.4866C4.41034 23.4866 4.41021 23.4866 4.41008 23.4866C4.40995 23.4866 4.40982 23.4866 4.40969 23.4866C4.40956 23.4866 4.40942 23.4866 4.40929 23.4866C4.40916 23.4866 4.40903 23.4866 4.4089 23.4866C4.40877 23.4866 4.40864 23.4866 4.40851 23.4866C4.40838 23.4866 4.40825 23.4866 4.40812 23.4866C4.40799 23.4866 4.40786 23.4866 4.40773 23.4866C4.4076 23.4866 4.40747 23.4866 4.40734 23.4866C4.40721 23.4866 4.40708 23.4866 4.40695 23.4866C4.40682 23.4866 4.40669 23.4866 4.40656 23.4866C4.40643 23.4866 4.4063 23.4866 4.40617 23.4866C4.40604 23.4866 4.40591 23.4866 4.40578 23.4866C4.40565 23.4866 4.40552 23.4866 4.40539 23.4866C4.40526 23.4866 4.40513 23.4866 4.405 23.4866C4.40487 23.4866 4.40474 23.4866 4.40462 23.4866C4.40449 23.4866 4.40436 23.4866 4.40423 23.4866C4.4041 23.4866 4.40397 23.4866 4.40384 23.4866C4.40371 23.4866 4.40358 23.4866 4.40345 23.4866C4.40332 23.4866 4.4032 23.4866 4.40307 23.4866C4.40294 23.4866 4.40281 23.4866 4.40268 23.4866C4.40255 23.4866 4.40242 23.4866 4.40229 23.4866C4.40217 23.4866 4.40204 23.4866 4.40191 23.4866C4.40178 23.4866 4.40165 23.4866 4.40152 23.4866C4.40139 23.4866 4.40127 23.4866 4.40114 23.4866C4.40101 23.4866 4.40088 23.4866 4.40075 23.4866C4.40062 23.4866 4.4005 23.4866 4.40037 23.4866C4.40024 23.4866 4.40011 23.4866 4.39998 23.4866C4.39986 23.4866 4.39973 23.4866 4.3996 23.4866C4.39947 23.4866 4.39934 23.4866 4.39922 23.4866C4.39909 23.4866 4.39896 23.4866 4.39883 23.4866C4.39871 23.4866 4.39858 23.4866 4.39845 23.4866C4.39832 23.4866 4.3982 23.4866 4.39807 23.4866C4.39794 23.4866 4.39781 23.4866 4.39769 23.4866C4.39756 23.4866 4.39743 23.4866 4.3973 23.4866C4.39718 23.4866 4.39705 23.4866 4.39692 23.4866C4.3968 23.4866 4.39667 23.4866 4.39654 23.4866C4.39642 23.4866 4.39629 23.4866 4.39616 23.4866C4.39603 23.4866 4.39591 23.4866 4.39578 23.4866C4.39565 23.4866 4.39553 23.4866 4.3954 23.4866C4.39527 23.4866 4.39515 23.4866 4.39502 23.4866C4.3949 23.4866 4.39477 23.4866 4.39464 23.4866C4.39452 23.4866 4.39439 23.4866 4.39426 23.4866C4.39414 23.4866 4.39401 23.4866 4.39389 23.4866C4.39376 23.4866 4.39363 23.4866 4.39351 23.4866C4.39338 23.4866 4.39326 23.4866 4.39313 23.4866C4.393 23.4866 4.39288 23.4866 4.39275 23.4866C4.39263 23.4866 4.3925 23.4866 4.39237 23.4866C4.39225 23.4866 4.39212 23.4866 4.392 23.4866C4.39187 23.4866 4.39175 23.4866 4.39162 23.4866C4.3915 23.4866 4.39137 23.4866 4.39125 23.4866C4.39112 23.4866 4.391 23.4866 4.39087 23.4866C4.39075 23.4866 4.39062 23.4866 4.3905 23.4866C4.39037 23.4866 4.39025 23.4866 4.39012 23.4866C4.39 23.4866 4.38987 23.4866 4.38975 23.4866C4.38962 23.4866 4.3895 23.4866 4.38937 23.4866C4.38925 23.4866 4.38912 23.4866 4.389 23.4866C4.38887 23.4866 4.38875 23.4866 4.38863 23.4866C4.3885 23.4866 4.38838 23.4866 4.38825 23.4866C4.38813 23.4866 4.388 23.4866 4.38788 23.4866C4.38776 23.4866 4.38763 23.4866 4.38751 23.4866C4.38738 23.4866 4.38726 23.4866 4.38714 23.4866C4.38701 23.4866 4.38689 23.4866 4.38677 23.4866C4.38664 23.4866 4.38652 23.4866 4.38639 23.4866C4.38627 23.4866 4.38615 23.4866 4.38602 23.4866C4.3859 23.4866 4.38578 23.4866 4.38565 23.4866C4.38553 23.4866 4.38541 23.4866 4.38528 23.4866C4.38516 23.4866 4.38504 23.4866 4.38492 23.4866C4.38479 23.4866 4.38467 23.4866 4.38455 23.4866C4.38442 23.4866 4.3843 23.4866 4.38418 23.4866C4.38406 23.4866 4.38393 23.4866 4.38381 23.4866C4.38369 23.4866 4.38356 23.4866 4.38344 23.4866C4.38332 23.4866 4.3832 23.4866 4.38308 23.4866C4.38295 23.4866 4.38283 23.4866 4.38271 23.4866C4.38259 23.4866 4.38246 23.4866 4.38234 23.4866C4.38222 23.4866 4.3821 23.4866 4.38198 23.4866C4.38185 23.4866 4.38173 23.4866 4.38161 23.4866C4.38149 23.4866 4.38137 23.4866 4.38125 23.4866C4.38112 23.4866 4.381 23.4866 4.38088 23.4866C4.38076 23.4866 4.38064 23.4866 4.38052 23.4866C4.3804 23.4866 4.38027 23.4866 4.38015 23.4866C4.38003 23.4866 4.37991 23.4866 4.37979 23.4866C4.37967 23.4866 4.37955 23.4866 4.37943 23.4866C4.37931 23.4866 4.37918 23.4866 4.37906 23.4866C4.37894 23.4866 4.37882 23.4866 4.3787 23.4866C4.37858 23.4866 4.37846 23.4866 4.37834 23.4866C4.37822 23.4866 4.3781 23.4866 4.37798 23.4866C4.37786 23.4866 4.37774 23.4866 4.37762 23.4866C4.3775 23.4866 4.37738 23.4866 4.37726 23.4866C4.37714 23.4866 4.37702 23.4866 4.3769 23.4866C4.37678 23.4866 4.37666 23.4866 4.37654 23.4866C4.37642 23.4866 4.3763 23.4866 4.37618 23.4866C4.37606 23.4866 4.37594 23.4866 4.37582 23.4866C4.3757 23.4866 4.37558 23.4866 4.37546 23.4866C4.37534 23.4866 4.37522 23.4866 4.3751 23.4866C4.37499 23.4866 4.37487 23.4866 4.37475 23.4866C4.37463 23.4866 4.37451 23.4866 4.37439 23.4866C4.37427 23.4866 4.37415 23.4866 4.37403 23.4866C4.37392 23.4866 4.3738 23.4866 4.37368 23.4866C4.37356 23.4866 4.37344 23.4866 4.37332 23.4866C4.3732 23.4866 4.37309 23.4866 4.37297 23.4866C4.37285 23.4866 4.37273 23.4866 4.37261 23.4866C4.3725 23.4866 4.37238 23.4866 4.37226 23.4866C4.37214 23.4866 4.37202 23.4866 4.37191 23.4866C4.37179 23.4866 4.37167 23.4866 4.37155 23.4866C4.37143 23.4866 4.37132 23.4866 4.3712 23.4866C4.37108 23.4866 4.37096 23.4866 4.37085 23.4866C4.37073 23.4866 4.37061 23.4866 4.3705 23.4866C4.37038 23.4866 4.37026 23.4866 4.37014 23.4866C4.37003 23.4866 4.36991 23.4866 4.36979 23.4866C4.36968 23.4866 4.36956 23.4866 4.36944 23.4866C4.36933 23.4866 4.36921 23.4866 4.36909 23.4866C4.36898 23.4866 4.36886 23.4866 4.36874 23.4866C4.36863 23.4866 4.36851 23.4866 4.3684 23.4866C4.36828 23.4866 4.36816 23.4866 4.36805 23.4866C4.36793 23.4866 4.36781 23.4866 4.3677 23.4866C4.36758 23.4866 4.36747 23.4866 4.36735 23.4866C4.36724 23.4866 4.36712 23.4866 4.367 23.4866C4.36689 23.4866 4.36677 23.4866 4.36666 23.4866C4.36654 23.4866 4.36643 23.4866 4.36631 23.4866C4.3662 23.4866 4.36608 23.4866 4.36597 23.4866C4.36585 23.4866 4.36574 23.4866 4.36562 23.4866C4.36551 23.4866 4.36539 23.4866 4.36528 23.4866C4.36516 23.4866 4.36505 23.4866 4.36493 23.4866C4.36482 23.4866 4.3647 23.4866 4.36459 23.4866C4.36447 23.4866 4.36436 23.4866 4.36425 23.4866C4.36413 23.4866 4.36402 23.4866 4.3639 23.4866C4.36379 23.4866 4.36368 23.4866 4.36356 23.4866C4.36345 23.4866 4.36333 23.4866 4.36322 23.4866C4.36311 23.4866 4.36299 23.4866 4.36288 23.4866C4.36277 23.4866 4.36265 23.4866 4.36254 23.4866C4.36243 23.4866 4.36231 23.4866 4.3622 23.4866C4.36209 23.4866 4.36197 23.4866 4.36186 23.4866C4.36175 23.4866 4.36163 23.4866 4.36152 23.4866C4.36141 23.4866 4.36129 23.4866 4.36118 23.4866C4.36107 23.4866 4.36096 23.4866 4.36084 23.4866C4.36073 23.4866 4.36062 23.4866 4.36051 23.4866C4.36039 23.4866 4.36028 23.4866 4.36017 23.4866C4.36006 23.4866 4.35994 23.4866 4.35983 23.4866C4.35972 23.4866 4.35961 23.4866 4.3595 23.4866C4.35938 23.4866 4.35927 23.4866 4.35916 23.4866C4.35905 23.4866 4.35894 23.4866 4.35883 23.4866C4.35871 23.4866 4.3586 23.4866 4.35849 23.4866C4.35838 23.4866 4.35827 23.4866 4.35816 23.4866C4.35805 23.4866 4.35794 23.4866 4.35782 23.4866C4.35771 23.4866 4.3576 23.4866 4.35749 23.4866C4.35738 23.4866 4.35727 23.4866 4.35716 23.4866C4.35705 23.4866 4.35694 23.4866 4.35683 23.4866C4.35672 23.4866 4.35661 23.4866 4.3565 23.4866C4.35639 23.4866 4.35628 23.4866 4.35617 23.4866C4.35606 23.4866 4.35595 23.4866 4.35584 23.4866C4.35573 23.4866 4.35562 23.4866 4.35551 23.4866C4.3554 23.4866 4.35529 23.4866 4.35518 23.4866C4.35507 23.4866 4.35496 23.4866 4.35485 23.4866C4.35474 23.4866 4.35463 23.4866 4.35452 23.4866C4.35441 23.4866 4.3543 23.4866 4.35419 23.4866C4.35408 23.4866 4.35398 23.4866 4.35387 23.4866C4.35376 23.4866 4.35365 23.4866 4.35354 23.4866C4.35343 23.4866 4.35332 23.4866 4.35321 23.4866C4.35311 23.4866 4.353 23.4866 4.35289 23.4866C4.35278 23.4866 4.35267 23.4866 4.35257 23.4866C4.35246 23.4866 4.35235 23.4866 4.35224 23.4866C4.35213 23.4866 4.35203 23.4866 4.35192 23.4866C4.35181 23.4866 4.3517 23.4866 4.35159 23.4866C4.35149 23.4866 4.35138 23.4866 4.35127 23.4866C4.35116 23.4866 4.35106 23.4866 4.35095 23.4866C4.35084 23.4866 4.35074 23.4866 4.35063 23.4866C4.35052 23.4866 4.35042 23.4866 4.35031 23.4866C4.3502 23.4866 4.35009 23.4866 4.34999 23.4866C4.34988 23.4866 4.34977 23.4866 4.34967 23.4866C4.34956 23.4866 4.34946 23.4866 4.34935 23.4866C4.34924 23.4866 4.34914 23.4866 4.34903 23.4866C4.34892 23.4866 4.34882 23.4866 4.34871 23.4866C4.34861 23.4866 4.3485 23.4866 4.3484 23.4866C4.34829 23.4866 4.34818 23.4866 4.34808 23.4866C4.34797 23.4866 4.34787 23.4866 4.34776 23.4866C4.34766 23.4866 4.34755 23.4866 4.34745 23.4866C4.34734 23.4866 4.34724 23.4866 4.34713 23.4866C4.34703 23.4866 4.34692 23.4866 4.34682 23.4866C4.34671 23.4866 4.34661 23.4866 4.3465 23.4866C4.3464 23.4866 4.3463 23.4866 4.34619 23.4866C4.34609 23.4866 4.34598 23.4866 4.34588 23.4866C4.34577 23.4866 4.34567 23.4866 4.34557 23.4866C4.34546 23.4866 4.34536 23.4866 4.34525 23.4866C4.34515 23.4866 4.34505 23.4866 4.34494 23.4866C4.34484 23.4866 4.34474 23.4866 4.34463 23.4866C4.34453 23.4866 4.34443 23.4866 4.34432 23.4866C4.34422 23.4866 4.34412 23.4866 4.34401 23.4866C4.34391 23.4866 4.34381 23.4866 4.34371 23.4866C4.3436 23.4866 4.3435 23.4866 4.3434 23.4866C4.3433 23.4866 4.34319 23.4866 4.34309 23.4866C4.34299 23.4866 4.34289 23.4866 4.34278 23.4866C4.34268 23.4866 4.34258 23.4866 4.34248 23.4866C4.34238 23.4866 4.34227 23.4866 4.34217 23.4866C4.34207 23.4866 4.34197 23.4866 4.34187 23.4866C4.34177 23.4866 4.34166 23.4866 4.34156 23.4866C4.34146 23.4866 4.34136 23.4866 4.34126 23.4866C4.34116 23.4866 4.34106 23.4866 4.34096 23.4866C4.34086 23.4866 4.34076 23.4866 4.34065 23.4866C4.34055 23.4866 4.34045 23.4866 4.34035 23.4866C4.34025 23.4866 4.34015 23.4866 4.34005 23.4866C4.33995 23.4866 4.33985 23.4866 4.33975 23.4866C4.33965 23.4866 4.33955 23.4866 4.33945 23.4866C4.33935 23.4866 4.33925 23.4866 4.33915 23.4866C4.33905 23.4866 4.33895 23.4866 4.33885 23.4866C4.33875 23.4866 4.33865 23.4866 4.33855 23.4866C4.33846 23.4866 4.33836 23.4866 4.33826 23.4866C4.33816 23.4866 4.33806 23.4866 4.33796 23.4866C4.33786 23.4866 4.33776 23.4866 4.33766 23.4866C4.33757 23.4866 4.33747 23.4866 4.33737 23.4866C4.33727 23.4866 4.33717 23.4866 4.33707 23.4866C4.33698 23.4866 4.33688 23.4866 4.33678 23.4866C4.33668 23.4866 4.33658 23.4866 4.33649 23.4866C4.33639 23.4866 4.33629 23.4866 4.33619 23.4866C4.3361 23.4866 4.336 23.4866 4.3359 23.4866C4.3358 23.4866 4.33571 23.4866 4.33561 23.4866C4.33551 23.4866 4.33541 23.4866 4.33532 23.4866C4.33522 23.4866 4.33512 23.4866 4.33503 23.4866C4.33493 23.4866 4.33483 23.4866 4.33474 23.4866C4.33464 23.4866 4.33454 23.4866 4.33445 23.4866C4.33435 23.4866 4.33426 23.4866 4.33416 23.4866C4.33406 23.4866 4.33397 23.4866 4.33387 23.4866C4.33378 23.4866 4.33368 23.4866 4.33358 23.4866C4.33349 23.4866 4.33339 23.4866 4.3333 23.4866C4.3332 23.4866 4.33311 23.4866 4.33301 23.4866C4.33292 23.4866 4.33282 23.4866 4.33273 23.4866C4.33263 23.4866 4.33254 23.4866 4.33244 23.4866C4.33235 23.4866 4.33225 23.4866 4.33216 23.4866C4.33206 23.4866 4.33197 23.4866 4.33188 23.4866C4.33178 23.4866 4.33169 23.4866 4.33159 23.4866C4.3315 23.4866 4.3314 23.4866 4.33131 23.4866C4.33122 23.4866 4.33112 23.4866 4.33103 23.4866C4.33094 23.4866 4.33084 23.4866 4.33075 23.4866C4.33066 23.4866 4.33056 23.4866 4.33047 23.4866C4.33038 23.4866 4.33028 23.4866 4.33019 23.4866C4.3301 23.4866 4.33 23.4866 4.32991 23.4866C4.32982 23.4866 4.32973 23.4866 4.32963 23.4866C4.32954 23.4866 4.32945 23.4866 4.32936 23.4866C4.32926 23.4866 4.32917 23.4866 4.32908 23.4866C4.32899 23.4866 4.3289 23.4866 4.3288 23.4866C4.32871 23.4866 4.32862 23.4866 4.32853 23.4866C4.32844 23.4866 4.32835 23.4866 4.32825 23.4866C4.32816 23.4866 4.32807 23.4866 4.32798 23.4866C4.32789 23.4866 4.3278 23.4866 4.32771 23.4866C4.32762 23.4866 4.32752 23.4866 4.32743 23.4866C4.32734 23.4866 4.32725 23.4866 4.32716 23.4866C4.32707 23.4866 4.32698 23.4866 4.32689 23.4866C4.3268 23.4866 4.32671 23.4866 4.32662 23.4866C4.32653 23.4866 4.32644 23.4866 4.32635 23.4866C4.32626 23.4866 4.32617 23.4866 4.32608 23.4866C4.32599 23.4866 4.3259 23.4866 4.32581 23.4866C4.32572 23.4866 4.32564 23.4866 4.32555 23.4866C4.32546 23.4866 4.32537 23.4866 4.32528 23.4866C4.32519 23.4866 4.3251 23.4866 4.32501 23.4866C4.32492 23.4866 4.32484 23.4866 4.32475 23.4866C4.32466 23.4866 4.32457 23.4866 4.32448 23.4866C4.3244 23.4866 4.32431 23.4866 4.32422 23.4866C4.32413 23.4866 4.32404 23.4866 4.32396 23.4866C4.32387 23.4866 4.32378 23.4866 4.32369 23.4866C4.32361 23.4866 4.32352 23.4866 4.32343 23.4866C4.32334 23.4866 4.32326 23.4866 4.32317 23.4866C4.32308 23.4866 4.323 23.4866 4.32291 23.4866C4.32282 23.4866 4.32274 23.4866 4.32265 23.4866C4.32256 23.4866 4.32248 23.4866 4.32239 23.4866C4.3223 23.4866 4.32222 23.4866 4.32213 23.4866C4.32205 23.4866 4.32196 23.4866 4.32187 23.4866C4.32179 23.4866 4.3217 23.4866 4.32162 23.4866C4.32153 23.4866 4.32145 23.4866 4.32136 23.4866C4.32128 23.4866 4.32119 23.4866 4.32111 23.4866C4.32102 23.4866 4.32094 23.4866 4.32085 23.4866C4.32077 23.4866 4.32068 23.4866 4.3206 23.4866C4.32051 23.4866 4.32043 23.4866 4.32034 23.4866C4.32026 23.4866 4.32018 23.4866 4.32009 23.4866C4.32001 23.4866 4.31992 23.4866 4.31984 23.4866C4.31976 23.4866 4.31967 23.4866 4.31959 23.4866C4.31951 23.4866 4.31942 23.4866 4.31934 23.4866C4.31925 23.4866 4.31917 23.4866 4.31909 23.4866C4.31901 23.4866 4.31892 23.4866 4.31884 23.4866C4.31876 23.4866 4.31867 23.4866 4.31859 23.4866C4.31851 23.4866 4.31843 23.4866 4.31834 23.4866C4.31826 23.4866 4.31818 23.4866 4.3181 23.4866C4.31802 23.4866 4.31793 23.4866 4.31785 23.4866C4.31777 23.4866 4.31769 23.4866 4.31761 23.4866C4.31753 23.4866 4.31744 23.4866 4.31736 23.4866C4.31728 23.4866 4.3172 23.4866 4.31712 23.4866C4.31704 23.4866 4.31696 23.4866 4.31688 23.4866C4.3168 23.4866 4.31671 23.4866 4.31663 23.4866C4.31655 23.4866 4.31647 23.4866 4.31639 23.4866C4.31631 23.4866 4.31623 23.4866 4.31615 23.4866C4.31607 23.4866 4.31599 23.4866 4.31591 23.4866C4.31583 23.4866 4.31575 23.4866 4.31567 23.4866C4.31559 23.4866 4.31551 23.4866 4.31543 23.4866C4.31536 23.4866 4.31528 23.4866 4.3152 23.4866C4.31512 23.4866 4.31504 23.4866 4.31496 23.4866C4.31488 23.4866 4.3148 23.4866 4.31472 23.4866C4.31465 23.4866 4.31457 23.4866 4.31449 23.4866C4.31441 23.4866 4.31433 23.4866 4.31425 23.4866C4.31418 23.4866 4.3141 23.4866 4.31402 23.4866C4.31394 23.4866 4.31387 23.4866 4.31379 23.4866C4.31371 23.4866 4.31363 23.4866 4.31356 23.4866C4.31348 23.4866 4.3134 23.4866 4.31332 23.4866C4.31325 23.4866 4.31317 23.4866 4.31309 23.4866C4.31302 23.4866 4.31294 23.4866 4.31286 23.4866C4.31279 23.4866 4.31271 23.4866 4.31264 23.4866C4.31256 23.4866 4.31248 23.4866 4.31241 23.4866C4.31233 23.4866 4.31226 23.4866 4.31218 23.4866C4.3121 23.4866 4.31203 23.4866 4.31195 23.4866C4.31188 23.4866 4.3118 23.4866 4.31173 23.4866C4.31165 23.4866 4.31158 23.4866 4.3115 23.4866C4.31143 23.4866 4.31135 23.4866 4.31128 23.4866C4.3112 23.4866 4.31113 23.4866 4.31105 23.4866C4.31098 23.4866 4.31091 23.4866 4.31083 23.4866C4.31076 23.4866 4.31068 23.4866 4.31061 23.4866C4.31054 23.4866 4.31046 23.4866 4.31039 23.4866C4.31031 23.4866 4.31024 23.4866 4.31017 23.4866C4.31009 23.4866 4.31002 23.4866 4.30995 23.4866C4.30988 23.4866 4.3098 23.4866 4.30973 23.4866C4.30966 23.4866 4.30958 23.4866 4.30951 23.4866C4.30944 23.4866 4.30937 23.4866 4.30929 23.4866C4.30922 23.4866 4.30915 23.4866 4.30908 23.4866C4.30901 23.4866 4.30893 23.4866 4.30886 23.4866C4.30879 23.4866 4.30872 23.4866 4.30865 23.4866C4.30858 23.4866 4.30851 23.4866 4.30843 23.4866C4.30836 23.4866 4.30829 23.4866 4.30822 23.4866C4.30815 23.4866 4.30808 23.4866 4.30801 23.4866C4.30794 23.4866 4.30787 23.4866 4.3078 23.4866C4.30773 23.4866 4.30766 23.4866 4.30759 23.4866V24.4866ZM4.5658 24.4804C7.2753 24.0476 9.4016 22.5216 10.14 21.9426L9.52298 21.1557C8.82662 21.7017 6.86379 23.1007 4.40807 23.4929L4.5658 24.4804ZM9.73532 22.0398C10.2995 22.1504 11.4602 22.3866 12.5217 22.3866V21.3866C11.5745 21.3866 10.5113 21.1729 9.92768 21.0585L9.73532 22.0398ZM12.5217 22.3866C19.0495 22.3866 24.5 17.6829 24.5 11.7616H23.5C23.5 17.0153 18.62 21.3866 12.5217 21.3866V22.3866ZM24.5 11.7616C24.5 5.84481 19.0545 1.06165 12.5217 1.06165V2.06165C18.615 2.06165 23.5 6.50348 23.5 11.7616H24.5ZM12.5217 19.8116C11.9699 19.8116 11.3283 19.7322 10.8112 19.6451C10.5548 19.602 10.3349 19.558 10.1796 19.5232C10.1013 19.5056 10.043 19.4912 10.0062 19.4812C9.98692 19.4759 9.97961 19.4735 9.98049 19.4738C9.98121 19.474 9.98353 19.4748 9.98707 19.4762C9.99035 19.4774 9.99674 19.4799 10.0051 19.4836C10.0125 19.4868 10.028 19.4939 10.0473 19.505C10.0595 19.512 10.1078 19.5396 10.157 19.591L9.43431 20.2823C9.48462 20.3349 9.53477 20.3638 9.54947 20.3723C9.57128 20.3848 9.59008 20.3935 9.60135 20.3984C9.62421 20.4085 9.64486 20.4159 9.65782 20.4203C9.68528 20.4297 9.71517 20.4383 9.7428 20.4459C9.79992 20.4615 9.87448 20.4796 9.96095 20.499C10.1351 20.538 10.3726 20.5854 10.6452 20.6313C11.1863 20.7224 11.8899 20.8116 12.5217 20.8116V19.8116ZM9.89796 19.4472L9.53927 19.3722L9.3346 20.3511L9.6933 20.4261L9.89796 19.4472ZM9.09945 19.4927L8.8125 19.7552L9.48746 20.4931L9.77442 20.2306L9.09945 19.4927ZM9.14998 19.6241C9.06109 19.6241 8.99473 19.6483 8.97559 19.6554C8.9476 19.6657 8.92619 19.6765 8.91482 19.6824C8.89172 19.6946 8.87394 19.7062 8.86617 19.7113C8.84888 19.7227 8.83341 19.7343 8.82443 19.741C8.80471 19.7559 8.78 19.7754 8.75561 19.7947C8.70379 19.8358 8.63369 19.8917 8.5434 19.9612C8.36341 20.0998 8.10496 20.2912 7.78195 20.5028C7.13344 20.9277 6.23512 21.4272 5.20041 21.7464L5.4952 22.7019C6.64853 22.3461 7.63336 21.7956 8.32996 21.3393C8.6795 21.1103 8.9591 20.9032 9.1535 20.7535C9.25041 20.6789 9.32658 20.6182 9.37648 20.5787C9.40296 20.5577 9.41797 20.5459 9.42638 20.5396C9.43147 20.5357 9.42716 20.5392 9.41808 20.5452C9.41442 20.5476 9.4 20.5572 9.37952 20.5679C9.36946 20.5732 9.34917 20.5834 9.32212 20.5934C9.30392 20.6001 9.23831 20.6241 9.14998 20.6241V19.6241ZM5.74489 22.528C6.35084 21.7361 6.72222 20.991 6.94307 20.4288C7.05349 20.1478 7.12671 19.9114 7.17297 19.7362C7.19607 19.6488 7.2128 19.5752 7.22416 19.5178C7.23116 19.4825 7.24672 19.404 7.24672 19.3366H6.24672C6.24672 19.288 6.25443 19.2669 6.24321 19.3236C6.23636 19.3582 6.22451 19.4112 6.20613 19.4808C6.16944 19.6197 6.10815 19.8193 6.01232 20.0632C5.82067 20.551 5.4926 21.2122 4.95072 21.9203L5.74489 22.528ZM7.24139 19.4094L7.31313 18.9219L6.32378 18.7764L6.25205 19.2639L7.24139 19.4094ZM7.09541 18.4329L6.70085 18.1704L6.14694 19.0029L6.5415 19.2654L7.09541 18.4329ZM6.70279 18.1717C4.30981 16.5634 2.97824 14.2346 2.97824 11.6866H1.97824C1.97824 14.6137 3.51624 17.2349 6.14499 19.0016L6.70279 18.1717ZM2.97824 11.6866C2.97824 7.26965 7.19906 3.56165 12.5217 3.56165V2.56165C6.79655 2.56165 1.97824 6.57864 1.97824 11.6866H2.97824ZM12.5217 3.56165C17.8444 3.56165 22.0652 7.26965 22.0652 11.6866H23.0652C23.0652 6.57864 18.2469 2.56165 12.5217 2.56165V3.56165ZM22.0652 11.6866C22.0652 16.1036 17.8444 19.8116 12.5217 19.8116V20.8116C18.2469 20.8116 23.0652 16.7947 23.0652 11.6866H22.0652Z" fill="#5E6272"/>
</svg>
