<svg width="23" height="25" viewBox="0 0 23 25" fill="none" xmlns="http://www.w3.org/2000/svg">
<path fill-rule="evenodd" clip-rule="evenodd" d="M12.5979 21.5615H10.4457C6.28483 21.5615 2.91309 18.0365 2.91309 13.6865V11.4365C2.91309 7.08652 6.28483 3.56152 10.4457 3.56152H12.5979C16.7587 3.56152 20.1305 7.08652 20.1305 11.4365V13.6865C20.1305 18.0365 16.7587 21.5615 12.5979 21.5615Z" stroke="#1ABCFE" stroke-width="2" stroke-linecap="round" stroke-linejoin="round"/>
<path d="M11.8581 21.5635C9.37879 20.1595 7.69531 17.4155 7.69531 14.2605V10.8625C7.69531 7.71054 9.37592 4.96854 11.8504 3.56354" stroke="#1ABCFE" stroke-width="2" stroke-linecap="round" stroke-linejoin="round"/>
<path d="M10.5652 21.5635C13.0445 20.1595 14.728 17.4155 14.728 14.2605V10.8625C14.728 7.71054 13.0474 4.96854 10.5719 3.56354" stroke="#1ABCFE" stroke-width="2" stroke-linecap="round" stroke-linejoin="round"/>
<path d="M20.1305 12.5615H2.91309" stroke="#1ABCFE" stroke-width="2" stroke-linecap="round" stroke-linejoin="round"/>
</svg>
