<?xml version="1.0" encoding="utf-8"?>
<!-- Generator: Adobe Illustrator 24.0.1, SVG Export Plug-In . SVG Version: 6.00 Build 0)  -->
<svg version="1.1" id="Layer_1" xmlns="http://www.w3.org/2000/svg" xmlns:xlink="http://www.w3.org/1999/xlink" x="0px" y="0px"
	 viewBox="0 0 33.4 30" style="enable-background:new 0 0 33.4 30;" xml:space="preserve">
<style type="text/css">
	.st0{fill-rule:evenodd;clip-rule:evenodd;fill:#BCBABD;}
	.st1{fill:#E2E2EA;}
</style>
<title>Group 3404</title>
<path class="st0" d="M18.9,10.3c0.1-1.5,1.4-2.7,2.9-2.7c1.5-0.1,2.8,1.1,2.9,2.7c0,0,0,0,0,0c-0.1,1.5-1.4,2.7-2.9,2.7c0,0,0,0,0,0
	c-0.9,0-1.8-0.4-2.4-1.1l-5,2.3c0.1,0.3,0.2,0.6,0.2,0.9c0,0.3,0,0.6-0.1,0.8l5,2.3c0.6-0.7,1.4-1.2,2.4-1.2
	c1.5-0.1,2.8,1.1,2.9,2.7c0,0,0,0,0,0c-0.1,1.5-1.4,2.7-2.9,2.7c0,0,0,0,0,0c-1.5,0.1-2.8-1.1-2.9-2.7c0-0.1,0-0.2,0-0.2L13.6,17
	c-0.6,0.5-1.3,0.7-2,0.7c-1.5,0-2.8-1.2-2.9-2.7c0.1-1.5,1.4-2.7,2.9-2.7c0.7,0,1.4,0.2,1.9,0.7l5.4-2.4
	C18.9,10.5,18.9,10.4,18.9,10.3z M23.2,10.3c-0.1-0.8-0.8-1.4-1.6-1.3c-0.7,0.1-1.3,0.6-1.3,1.3c0.1,0.8,0.8,1.4,1.6,1.3
	C22.6,11.6,23.2,11,23.2,10.3z M23.2,19.7c0.1-0.8-0.5-1.5-1.3-1.6c-0.8-0.1-1.5,0.5-1.6,1.3c-0.1,0.8,0.5,1.5,1.3,1.6
	c0,0,0.1,0,0.1,0C22.5,21,23.2,20.4,23.2,19.7C23.2,19.7,23.2,19.7,23.2,19.7z M11.6,13.7c0.7,0,1.3,0.6,1.3,1.3
	c0,0.7-0.6,1.3-1.3,1.3c0,0,0,0,0,0c-0.7,0-1.3-0.6-1.3-1.3C10.3,14.3,10.9,13.7,11.6,13.7C11.6,13.7,11.6,13.7,11.6,13.7z"/>
<path class="st1" d="M23.4,30H10C4.5,30,0,25.5,0,20V10C0,4.5,4.5,0,10,0h13.4c5.5,0,10,4.5,10,10v10C33.4,25.5,28.9,30,23.4,30z
	 M10,1c-5,0-9,4-9,9v10c0,5,4,9,9,9h13.4c5,0,9-4,9-9V10c0-5-4-9-9-9H10z"/>
</svg>
