<svg width="23" height="25" viewBox="0 0 23 25" fill="none" xmlns="http://www.w3.org/2000/svg">
<path fill-rule="evenodd" clip-rule="evenodd" d="M9.56522 10.0616V2.56659C9.56522 1.45929 10.4143 0.561646 11.4783 0.561646C12.5348 0.561646 13.3913 1.47317 13.3913 2.56659V10.0616H21.0387C22.0979 10.0616 22.9565 10.9494 22.9565 12.0616C22.9565 13.1662 22.0846 14.0616 21.0387 14.0616H13.3913V22.5567C13.3913 23.664 12.5422 24.5616 11.4783 24.5616C10.4217 24.5616 9.56522 23.6501 9.56522 22.5567V14.0616H1.91778C0.858617 14.0616 0 13.1739 0 12.0616C0 10.9571 0.871891 10.0616 1.91778 10.0616H9.56522Z" fill="#5E6272"/>
</svg>
