<?xml version="1.0" encoding="utf-8"?>
<!-- Generator: Adobe Illustrator 24.0.1, SVG Export Plug-In . SVG Version: 6.00 Build 0)  -->
<svg version="1.1" id="Layer_1" xmlns="http://www.w3.org/2000/svg" xmlns:xlink="http://www.w3.org/1999/xlink" x="0px" y="0px"
	 viewBox="0 0 25 24" style="enable-background:new 0 0 25 24;" xml:space="preserve">
<style type="text/css">
	.st0{fill-rule:evenodd;clip-rule:evenodd;fill:#5E6272;}
	.st1{fill:#5E6272;}
</style>
<path class="st0" d="M12.5,1C6.2,1,1,5.5,1,11.1c0,3,1.5,5.9,4.2,7.8c-0.2,0.6-0.6,1.5-1.7,2.5c-0.3,0.3-0.4,0.8-0.3,1.2
	c0.2,0.5,0.6,0.7,1,0.7c0,0,0.1,0,0.2,0C7,23,9.1,21.5,9.8,21c0.6,0.1,1.7,0.3,2.7,0.3c6.3,0,11.5-4.5,11.5-10.1S18.8,1,12.5,1z
	 M12.5,19.8c-1.2,0-2.7-0.3-2.7-0.4l-0.4-0.1l-0.3,0.3c0,0-1.6,1.4-3.8,2.1c1.1-1.5,1.4-2.8,1.4-2.9l0.1-0.5L6.4,18
	c-2.5-1.7-3.9-4.2-3.9-6.9c0-4.8,4.5-8.6,10-8.6c5.5,0,10,3.9,10,8.6S18,19.8,12.5,19.8z"/>
<path class="st1" d="M5.2,19l0.5,0.2l0.1-0.4l-0.3-0.2L5.2,19z M3.5,21.5l0.3,0.4l0,0L3.5,21.5z M3.3,22.7l-0.5,0.2l0,0l0,0
	L3.3,22.7z M4.4,23.4v0.5h0l0,0L4.4,23.4z M9.8,21l0.1-0.5l-0.2,0l-0.2,0.1L9.8,21z M9.8,19.4l0.4-0.3L10,18.9l-0.2,0L9.8,19.4z
	 M9.4,19.3l0.1-0.5l-0.3-0.1l-0.2,0.2L9.4,19.3z M9.1,19.6v0.5h0.2l0.1-0.1L9.1,19.6z M5.3,21.7l-0.4-0.3l-1,1.2l1.5-0.5L5.3,21.7z
	 M6.7,18.8l-0.5-0.1l0,0v0H6.7z M6.8,18.3l0.5,0.1l0-0.3l-0.3-0.2L6.8,18.3z M6.4,18l-0.3,0.4l0,0L6.4,18z M12.5,0.5
	c-6.5,0-12,4.7-12,10.6h1c0-5.3,4.9-9.6,11-9.6V0.5z M0.5,11.1c0,3.2,1.6,6.2,4.4,8.2l0.6-0.8c-2.5-1.8-4-4.6-4-7.4H0.5z M4.7,18.8
	c-0.2,0.5-0.6,1.4-1.5,2.3l0.7,0.7c1.1-1,1.5-2.1,1.8-2.7L4.7,18.8z M3.2,21.1c-0.5,0.4-0.6,1.1-0.4,1.8l1-0.3
	c-0.1-0.3,0-0.6,0.2-0.7L3.2,21.1z M2.8,22.9c0.3,0.6,0.8,1,1.5,1v-1c-0.2,0-0.4-0.1-0.5-0.4L2.8,22.9z M4.3,23.9
	C4.3,23.9,4.3,23.9,4.3,23.9C4.3,23.9,4.3,23.9,4.3,23.9C4.3,23.9,4.3,23.9,4.3,23.9C4.3,23.9,4.3,23.9,4.3,23.9
	C4.3,23.9,4.3,23.9,4.3,23.9C4.3,23.9,4.3,23.9,4.3,23.9C4.3,23.9,4.3,23.9,4.3,23.9C4.3,23.9,4.3,23.9,4.3,23.9
	C4.3,23.9,4.3,23.9,4.3,23.9C4.3,23.9,4.3,23.9,4.3,23.9C4.3,23.9,4.3,23.9,4.3,23.9C4.3,23.9,4.3,23.9,4.3,23.9
	C4.3,23.9,4.3,23.9,4.3,23.9C4.3,23.9,4.3,23.9,4.3,23.9C4.3,23.9,4.3,23.9,4.3,23.9C4.3,23.9,4.3,23.9,4.3,23.9
	C4.3,23.9,4.3,23.9,4.3,23.9C4.3,23.9,4.3,23.9,4.3,23.9C4.3,23.9,4.3,23.9,4.3,23.9C4.3,23.9,4.3,23.9,4.3,23.9
	C4.3,23.9,4.3,23.9,4.3,23.9C4.3,23.9,4.3,23.9,4.3,23.9C4.3,23.9,4.3,23.9,4.3,23.9C4.3,23.9,4.3,23.9,4.3,23.9
	C4.3,23.9,4.3,23.9,4.3,23.9C4.3,23.9,4.3,23.9,4.3,23.9C4.3,23.9,4.3,23.9,4.3,23.9C4.3,23.9,4.3,23.9,4.3,23.9
	C4.3,23.9,4.3,23.9,4.3,23.9C4.3,23.9,4.3,23.9,4.3,23.9C4.3,23.9,4.3,23.9,4.3,23.9C4.3,23.9,4.3,23.9,4.3,23.9
	C4.3,23.9,4.3,23.9,4.3,23.9C4.3,23.9,4.3,23.9,4.3,23.9C4.3,23.9,4.3,23.9,4.3,23.9C4.3,23.9,4.3,23.9,4.3,23.9
	C4.3,23.9,4.3,23.9,4.3,23.9C4.3,23.9,4.3,23.9,4.3,23.9C4.3,23.9,4.3,23.9,4.3,23.9C4.3,23.9,4.3,23.9,4.3,23.9
	C4.3,23.9,4.3,23.9,4.3,23.9C4.3,23.9,4.3,23.9,4.3,23.9C4.3,23.9,4.3,23.9,4.3,23.9C4.3,23.9,4.3,23.9,4.3,23.9
	C4.3,23.9,4.3,23.9,4.3,23.9C4.3,23.9,4.3,23.9,4.3,23.9C4.3,23.9,4.3,23.9,4.3,23.9C4.3,23.9,4.3,23.9,4.3,23.9
	C4.3,23.9,4.3,23.9,4.3,23.9C4.3,23.9,4.3,23.9,4.3,23.9C4.3,23.9,4.3,23.9,4.3,23.9C4.3,23.9,4.3,23.9,4.3,23.9
	C4.3,23.9,4.3,23.9,4.3,23.9C4.3,23.9,4.3,23.9,4.3,23.9C4.3,23.9,4.3,23.9,4.3,23.9C4.3,23.9,4.3,23.9,4.3,23.9
	C4.3,23.9,4.3,23.9,4.3,23.9C4.3,23.9,4.3,23.9,4.3,23.9C4.3,23.9,4.3,23.9,4.3,23.9C4.3,23.9,4.3,23.9,4.3,23.9
	C4.3,23.9,4.3,23.9,4.3,23.9C4.3,23.9,4.3,23.9,4.3,23.9C4.3,23.9,4.3,23.9,4.3,23.9C4.3,23.9,4.3,23.9,4.3,23.9
	C4.3,23.9,4.3,23.9,4.3,23.9C4.3,23.9,4.3,23.9,4.3,23.9C4.3,23.9,4.3,23.9,4.3,23.9C4.3,23.9,4.3,23.9,4.3,23.9
	C4.3,23.9,4.3,23.9,4.3,23.9C4.3,23.9,4.3,23.9,4.3,23.9C4.3,23.9,4.3,23.9,4.3,23.9C4.3,23.9,4.3,23.9,4.3,23.9
	C4.3,23.9,4.3,23.9,4.3,23.9C4.3,23.9,4.3,23.9,4.3,23.9C4.3,23.9,4.3,23.9,4.3,23.9C4.3,23.9,4.3,23.9,4.3,23.9
	C4.3,23.9,4.3,23.9,4.3,23.9C4.3,23.9,4.3,23.9,4.3,23.9C4.3,23.9,4.3,23.9,4.3,23.9C4.3,23.9,4.3,23.9,4.3,23.9
	C4.3,23.9,4.3,23.9,4.3,23.9C4.3,23.9,4.3,23.9,4.3,23.9C4.3,23.9,4.3,23.9,4.3,23.9C4.3,23.9,4.3,23.9,4.3,23.9
	C4.3,23.9,4.3,23.9,4.3,23.9C4.3,23.9,4.3,23.9,4.3,23.9C4.3,23.9,4.3,23.9,4.3,23.9C4.3,23.9,4.3,23.9,4.3,23.9
	C4.3,23.9,4.3,23.9,4.3,23.9C4.3,23.9,4.3,23.9,4.3,23.9C4.3,23.9,4.3,23.9,4.3,23.9C4.3,23.9,4.3,23.9,4.3,23.9
	C4.3,23.9,4.3,23.9,4.3,23.9C4.3,23.9,4.3,23.9,4.3,23.9C4.3,23.9,4.3,23.9,4.3,23.9C4.3,23.9,4.3,23.9,4.3,23.9
	C4.3,23.9,4.3,23.9,4.3,23.9C4.3,23.9,4.3,23.9,4.3,23.9C4.3,23.9,4.3,23.9,4.3,23.9C4.3,23.9,4.3,23.9,4.3,23.9
	C4.3,23.9,4.3,23.9,4.3,23.9C4.3,23.9,4.3,23.9,4.3,23.9C4.3,23.9,4.3,23.9,4.3,23.9C4.3,23.9,4.3,23.9,4.3,23.9
	C4.3,23.9,4.3,23.9,4.3,23.9C4.3,23.9,4.3,23.9,4.3,23.9C4.3,23.9,4.3,23.9,4.3,23.9C4.3,23.9,4.3,23.9,4.3,23.9
	C4.3,23.9,4.3,23.9,4.3,23.9C4.3,23.9,4.3,23.9,4.3,23.9C4.3,23.9,4.3,23.9,4.3,23.9C4.3,23.9,4.3,23.9,4.3,23.9
	C4.3,23.9,4.3,23.9,4.3,23.9C4.3,23.9,4.3,23.9,4.3,23.9C4.3,23.9,4.3,23.9,4.3,23.9C4.3,23.9,4.3,23.9,4.3,23.9
	C4.3,23.9,4.3,23.9,4.3,23.9C4.3,23.9,4.3,23.9,4.3,23.9C4.3,23.9,4.3,23.9,4.3,23.9C4.3,23.9,4.3,23.9,4.3,23.9
	C4.3,23.9,4.3,23.9,4.3,23.9C4.3,23.9,4.3,23.9,4.3,23.9C4.3,23.9,4.3,23.9,4.3,23.9C4.3,23.9,4.3,23.9,4.3,23.9
	C4.3,23.9,4.3,23.9,4.3,23.9C4.3,23.9,4.3,23.9,4.3,23.9C4.3,23.9,4.3,23.9,4.3,23.9C4.3,23.9,4.3,23.9,4.3,23.9
	C4.3,23.9,4.3,23.9,4.3,23.9C4.3,23.9,4.3,23.9,4.3,23.9C4.3,23.9,4.3,23.9,4.3,23.9C4.3,23.9,4.3,23.9,4.3,23.9
	C4.3,23.9,4.3,23.9,4.3,23.9C4.3,23.9,4.3,23.9,4.3,23.9C4.3,23.9,4.3,23.9,4.3,23.9C4.3,23.9,4.3,23.9,4.3,23.9
	C4.3,23.9,4.3,23.9,4.3,23.9C4.3,23.9,4.3,23.9,4.3,23.9C4.3,23.9,4.3,23.9,4.3,23.9C4.3,23.9,4.3,23.9,4.3,23.9
	C4.3,23.9,4.3,23.9,4.3,23.9C4.3,23.9,4.3,23.9,4.3,23.9C4.3,23.9,4.3,23.9,4.3,23.9C4.3,23.9,4.3,23.9,4.3,23.9
	C4.3,23.9,4.3,23.9,4.3,23.9C4.3,23.9,4.3,23.9,4.3,23.9C4.3,23.9,4.3,23.9,4.3,23.9C4.3,23.9,4.3,23.9,4.3,23.9
	C4.3,23.9,4.3,23.9,4.3,23.9C4.3,23.9,4.3,23.9,4.3,23.9C4.3,23.9,4.3,23.9,4.3,23.9C4.3,23.9,4.3,23.9,4.3,23.9
	C4.3,23.9,4.3,23.9,4.3,23.9C4.3,23.9,4.3,23.9,4.3,23.9C4.3,23.9,4.3,23.9,4.3,23.9C4.3,23.9,4.3,23.9,4.3,23.9
	C4.3,23.9,4.3,23.9,4.3,23.9C4.3,23.9,4.3,23.9,4.3,23.9C4.3,23.9,4.3,23.9,4.3,23.9C4.3,23.9,4.3,23.9,4.3,23.9
	C4.3,23.9,4.3,23.9,4.3,23.9C4.3,23.9,4.3,23.9,4.3,23.9C4.3,23.9,4.3,23.9,4.3,23.9C4.3,23.9,4.3,23.9,4.3,23.9
	C4.3,23.9,4.3,23.9,4.3,23.9C4.3,23.9,4.3,23.9,4.3,23.9C4.3,23.9,4.3,23.9,4.3,23.9C4.3,23.9,4.3,23.9,4.3,23.9
	C4.3,23.9,4.3,23.9,4.3,23.9C4.3,23.9,4.3,23.9,4.3,23.9C4.3,23.9,4.3,23.9,4.3,23.9C4.3,23.9,4.3,23.9,4.3,23.9
	C4.3,23.9,4.3,23.9,4.3,23.9C4.3,23.9,4.3,23.9,4.3,23.9C4.3,23.9,4.3,23.9,4.3,23.9C4.3,23.9,4.3,23.9,4.3,23.9
	C4.3,23.9,4.3,23.9,4.3,23.9C4.3,23.9,4.3,23.9,4.3,23.9C4.3,23.9,4.3,23.9,4.3,23.9C4.3,23.9,4.3,23.9,4.3,23.9
	C4.3,23.9,4.3,23.9,4.3,23.9C4.3,23.9,4.3,23.9,4.3,23.9C4.3,23.9,4.3,23.9,4.3,23.9C4.3,23.9,4.3,23.9,4.3,23.9
	C4.3,23.9,4.3,23.9,4.3,23.9C4.3,23.9,4.3,23.9,4.3,23.9C4.3,23.9,4.3,23.9,4.3,23.9C4.3,23.9,4.3,23.9,4.3,23.9
	C4.3,23.9,4.3,23.9,4.3,23.9C4.3,23.9,4.3,23.9,4.3,23.9C4.3,23.9,4.3,23.9,4.3,23.9C4.3,23.9,4.3,23.9,4.3,23.9
	C4.3,23.9,4.3,23.9,4.3,23.9C4.3,23.9,4.3,23.9,4.3,23.9C4.3,23.9,4.3,23.9,4.3,23.9C4.3,23.9,4.3,23.9,4.3,23.9
	C4.3,23.9,4.3,23.9,4.3,23.9C4.3,23.9,4.3,23.9,4.3,23.9C4.3,23.9,4.3,23.9,4.3,23.9C4.3,23.9,4.3,23.9,4.3,23.9
	C4.3,23.9,4.3,23.9,4.3,23.9C4.3,23.9,4.3,23.9,4.3,23.9C4.3,23.9,4.3,23.9,4.3,23.9C4.3,23.9,4.3,23.9,4.3,23.9
	C4.3,23.9,4.3,23.9,4.3,23.9C4.3,23.9,4.3,23.9,4.3,23.9C4.3,23.9,4.3,23.9,4.3,23.9C4.3,23.9,4.3,23.9,4.3,23.9
	C4.3,23.9,4.3,23.9,4.3,23.9C4.3,23.9,4.3,23.9,4.3,23.9C4.3,23.9,4.3,23.9,4.3,23.9C4.3,23.9,4.3,23.9,4.3,23.9
	C4.3,23.9,4.3,23.9,4.3,23.9C4.3,23.9,4.3,23.9,4.3,23.9C4.3,23.9,4.3,23.9,4.3,23.9C4.3,23.9,4.3,23.9,4.3,23.9
	C4.3,23.9,4.3,23.9,4.3,23.9C4.3,23.9,4.3,23.9,4.3,23.9C4.3,23.9,4.3,23.9,4.3,23.9C4.3,23.9,4.3,23.9,4.3,23.9
	C4.3,23.9,4.3,23.9,4.3,23.9C4.3,23.9,4.3,23.9,4.3,23.9C4.3,23.9,4.3,23.9,4.3,23.9C4.3,23.9,4.3,23.9,4.3,23.9
	C4.3,23.9,4.3,23.9,4.3,23.9C4.3,23.9,4.3,23.9,4.3,23.9C4.3,23.9,4.3,23.9,4.3,23.9C4.3,23.9,4.3,23.9,4.3,23.9
	C4.3,23.9,4.3,23.9,4.3,23.9C4.3,23.9,4.3,23.9,4.3,23.9C4.3,23.9,4.3,23.9,4.3,23.9C4.3,23.9,4.3,23.9,4.3,23.9
	C4.3,23.9,4.3,23.9,4.3,23.9C4.3,23.9,4.3,23.9,4.3,23.9C4.3,23.9,4.3,23.9,4.3,23.9C4.3,23.9,4.3,23.9,4.3,23.9
	C4.3,23.9,4.3,23.9,4.3,23.9C4.3,23.9,4.3,23.9,4.3,23.9C4.3,23.9,4.3,23.9,4.3,23.9C4.3,23.9,4.3,23.9,4.3,23.9
	C4.3,23.9,4.3,23.9,4.3,23.9C4.3,23.9,4.3,23.9,4.3,23.9C4.3,23.9,4.3,23.9,4.3,23.9C4.3,23.9,4.3,23.9,4.3,23.9
	C4.3,23.9,4.3,23.9,4.3,23.9C4.3,23.9,4.3,23.9,4.3,23.9C4.3,23.9,4.3,23.9,4.3,23.9C4.3,23.9,4.3,23.9,4.3,23.9
	C4.3,23.9,4.3,23.9,4.3,23.9C4.3,23.9,4.3,23.9,4.3,23.9C4.3,23.9,4.3,23.9,4.3,23.9C4.3,23.9,4.3,23.9,4.3,23.9
	C4.3,23.9,4.3,23.9,4.3,23.9C4.3,23.9,4.3,23.9,4.3,23.9C4.3,23.9,4.3,23.9,4.3,23.9C4.3,23.9,4.3,23.9,4.3,23.9
	C4.3,23.9,4.3,23.9,4.3,23.9C4.3,23.9,4.3,23.9,4.3,23.9C4.3,23.9,4.3,23.9,4.3,23.9C4.3,23.9,4.3,23.9,4.3,23.9
	C4.3,23.9,4.3,23.9,4.3,23.9C4.3,23.9,4.3,23.9,4.3,23.9C4.3,23.9,4.3,23.9,4.3,23.9C4.3,23.9,4.3,23.9,4.3,23.9
	C4.3,23.9,4.3,23.9,4.3,23.9C4.3,23.9,4.3,23.9,4.3,23.9C4.3,23.9,4.3,23.9,4.3,23.9C4.3,23.9,4.3,23.9,4.3,23.9
	C4.3,23.9,4.3,23.9,4.3,23.9C4.3,23.9,4.3,23.9,4.3,23.9C4.3,23.9,4.3,23.9,4.3,23.9C4.3,23.9,4.3,23.9,4.3,23.9
	C4.3,23.9,4.3,23.9,4.3,23.9C4.3,23.9,4.3,23.9,4.3,23.9C4.3,23.9,4.3,23.9,4.3,23.9C4.3,23.9,4.3,23.9,4.3,23.9
	C4.3,23.9,4.3,23.9,4.3,23.9C4.3,23.9,4.3,23.9,4.3,23.9C4.3,23.9,4.3,23.9,4.3,23.9C4.3,23.9,4.3,23.9,4.3,23.9
	C4.3,23.9,4.3,23.9,4.3,23.9C4.3,23.9,4.3,23.9,4.3,23.9C4.4,23.9,4.4,23.9,4.3,23.9C4.4,23.9,4.4,23.9,4.3,23.9
	C4.4,23.9,4.4,23.9,4.3,23.9C4.4,23.9,4.4,23.9,4.3,23.9C4.4,23.9,4.4,23.9,4.3,23.9C4.4,23.9,4.4,23.9,4.3,23.9
	C4.4,23.9,4.4,23.9,4.3,23.9C4.4,23.9,4.4,23.9,4.3,23.9C4.4,23.9,4.4,23.9,4.3,23.9C4.4,23.9,4.4,23.9,4.3,23.9
	C4.4,23.9,4.4,23.9,4.3,23.9C4.4,23.9,4.4,23.9,4.3,23.9C4.4,23.9,4.4,23.9,4.3,23.9C4.4,23.9,4.4,23.9,4.3,23.9
	C4.4,23.9,4.4,23.9,4.3,23.9C4.4,23.9,4.4,23.9,4.3,23.9C4.4,23.9,4.4,23.9,4.3,23.9C4.4,23.9,4.4,23.9,4.3,23.9
	C4.4,23.9,4.4,23.9,4.3,23.9C4.4,23.9,4.4,23.9,4.3,23.9C4.4,23.9,4.4,23.9,4.3,23.9C4.4,23.9,4.4,23.9,4.3,23.9
	C4.4,23.9,4.4,23.9,4.3,23.9C4.4,23.9,4.4,23.9,4.3,23.9C4.4,23.9,4.4,23.9,4.3,23.9C4.4,23.9,4.4,23.9,4.3,23.9
	C4.4,23.9,4.4,23.9,4.3,23.9C4.4,23.9,4.4,23.9,4.3,23.9C4.4,23.9,4.4,23.9,4.3,23.9C4.4,23.9,4.4,23.9,4.3,23.9
	C4.4,23.9,4.4,23.9,4.3,23.9C4.4,23.9,4.4,23.9,4.3,23.9C4.4,23.9,4.4,23.9,4.3,23.9C4.4,23.9,4.4,23.9,4.3,23.9
	C4.4,23.9,4.4,23.9,4.3,23.9C4.4,23.9,4.4,23.9,4.3,23.9c0.1,0,0.1,0,0.1,0c0,0,0,0,0,0c0,0,0,0,0,0c0,0,0,0,0,0c0,0,0,0,0,0
	s0,0,0,0s0,0,0,0c0,0,0,0,0,0c0,0,0,0,0,0c0,0,0,0,0,0c0,0,0,0,0,0c0,0,0,0,0,0c0,0,0,0,0,0c0,0,0,0,0,0c0,0,0,0,0,0s0,0,0,0
	c0,0,0,0,0,0c0,0,0,0,0,0c0,0,0,0,0,0c0,0,0,0,0,0c0,0,0,0,0,0c0,0,0,0,0,0s0,0,0,0c0,0,0,0,0,0c0,0,0,0,0,0c0,0,0,0,0,0
	c0,0,0,0,0,0c0,0,0,0,0,0c0,0,0,0,0,0s0,0,0,0s0,0,0,0c0,0,0,0,0,0c0,0,0,0,0,0c0,0,0,0,0,0c0,0,0,0,0,0c0,0,0,0,0,0c0,0,0,0,0,0
	c0,0,0,0,0,0c0,0,0,0,0,0c0,0,0,0,0,0c0,0,0,0,0,0c0,0,0,0,0,0c0,0,0,0,0,0c0,0,0,0,0,0c0,0,0,0,0,0c0,0,0,0,0,0c0,0,0,0,0,0
	c0,0,0,0,0,0c0,0,0,0,0,0c0,0,0,0,0,0c0,0,0,0,0,0s0,0,0,0c0,0,0,0,0,0c0,0,0,0,0,0c0,0,0,0,0,0c0,0,0,0,0,0c0,0,0,0,0,0
	c0,0,0,0,0,0c0,0,0,0,0,0c0,0,0,0,0,0c0,0,0,0,0,0c0,0,0,0,0,0c0,0,0,0,0,0c0,0,0,0,0,0s0,0,0,0c0,0,0,0,0,0c0,0,0,0,0,0
	c0,0,0,0,0,0c0,0,0,0,0,0c0,0,0,0,0,0c0,0,0,0,0,0c0,0,0,0,0,0c0,0,0,0,0,0c0,0,0,0,0,0c0,0,0,0,0,0c0,0,0,0,0,0c0,0,0,0,0,0
	c0,0,0,0,0,0c0,0,0,0,0,0c0,0,0,0,0,0c0,0,0,0,0,0c0,0,0,0,0,0c0,0,0,0,0,0c0,0,0,0,0,0c0,0,0,0,0,0c0,0,0,0,0,0c0,0,0,0,0,0
	c0,0,0,0,0,0s0,0,0,0c0,0,0,0,0,0c0,0,0,0,0,0c0,0,0,0,0,0c0,0,0,0,0,0s0,0,0,0s0,0,0,0c0,0,0,0,0,0c0,0,0,0,0,0c0,0,0,0,0,0
	c0,0,0,0,0,0c0,0,0,0,0,0c0,0,0,0,0,0c0,0,0,0,0,0c0,0,0,0,0,0c0,0,0,0,0,0c0,0,0,0,0,0c0,0,0,0,0,0c0,0,0,0,0,0c0,0,0,0,0,0
	c0,0,0,0,0,0c0,0,0,0,0,0s0,0,0,0s0,0,0,0c0,0,0,0,0,0c0,0,0,0,0,0c0,0,0,0,0,0c0,0,0,0,0,0s0,0,0,0c0,0,0,0,0,0c0,0,0,0,0,0
	c0,0,0,0,0,0c0,0,0,0,0,0s0,0,0,0c0,0,0,0,0,0c0,0,0,0,0,0c0,0,0,0,0,0c0,0,0,0,0,0c0,0,0,0,0,0c0,0,0,0,0,0c0,0,0,0,0,0
	c0,0,0,0,0,0c0,0,0,0,0,0c0,0,0,0,0,0s0,0,0,0c0,0,0,0,0,0c0,0,0,0,0,0c0,0,0,0,0,0c0,0,0,0,0,0s0,0,0,0c0,0,0,0,0,0c0,0,0,0,0,0
	c0,0,0,0,0,0c0,0,0,0,0,0c0,0,0,0,0,0s0,0,0,0c0,0,0,0,0,0c0,0,0,0,0,0c0,0,0,0,0,0c0,0,0,0,0,0s0,0,0,0c0,0,0,0,0,0c0,0,0,0,0,0
	c0,0,0,0,0,0c0,0,0,0,0,0s0,0,0,0c0,0,0,0,0,0c0,0,0,0,0,0c0,0,0,0,0,0c0,0,0,0,0,0s0,0,0,0c0,0,0,0,0,0c0,0,0,0,0,0c0,0,0,0,0,0
	c0,0,0,0,0,0s0,0,0,0c0,0,0,0,0,0c0,0,0,0,0,0c0,0,0,0,0,0c0,0,0,0,0,0s0,0,0,0s0,0,0,0c0,0,0,0,0,0c0,0,0,0,0,0c0,0,0,0,0,0
	c0,0,0,0,0,0s0,0,0,0c0,0,0,0,0,0c0,0,0,0,0,0c0,0,0,0,0,0c0,0,0,0,0,0s0,0,0,0c0,0,0,0,0,0c0,0,0,0,0,0c0,0,0,0,0,0c0,0,0,0,0,0
	s0,0,0,0c0,0,0,0,0,0c0,0,0,0,0,0c0,0,0,0,0,0c0,0,0,0,0,0s0,0,0,0c0,0,0,0,0,0c0,0,0,0,0,0c0,0,0,0,0,0c0,0,0,0,0,0v-1c0,0,0,0,0,0
	c0,0,0,0,0,0c0,0,0,0,0,0c0,0,0,0,0,0c0,0,0,0,0,0s0,0,0,0c0,0,0,0,0,0c0,0,0,0,0,0c0,0,0,0,0,0c0,0,0,0,0,0s0,0,0,0c0,0,0,0,0,0
	c0,0,0,0,0,0c0,0,0,0,0,0c0,0,0,0,0,0s0,0,0,0c0,0,0,0,0,0c0,0,0,0,0,0c0,0,0,0,0,0c0,0,0,0,0,0s0,0,0,0c0,0,0,0,0,0c0,0,0,0,0,0
	c0,0,0,0,0,0c0,0,0,0,0,0s0,0,0,0s0,0,0,0c0,0,0,0,0,0c0,0,0,0,0,0c0,0,0,0,0,0c0,0,0,0,0,0s0,0,0,0c0,0,0,0,0,0c0,0,0,0,0,0
	c0,0,0,0,0,0c0,0,0,0,0,0s0,0,0,0c0,0,0,0,0,0c0,0,0,0,0,0c0,0,0,0,0,0c0,0,0,0,0,0s0,0,0,0c0,0,0,0,0,0c0,0,0,0,0,0c0,0,0,0,0,0
	c0,0,0,0,0,0s0,0,0,0c0,0,0,0,0,0c0,0,0,0,0,0c0,0,0,0,0,0c0,0,0,0,0,0s0,0,0,0c0,0,0,0,0,0c0,0,0,0,0,0c0,0,0,0,0,0c0,0,0,0,0,0
	c0,0,0,0,0,0s0,0,0,0c0,0,0,0,0,0c0,0,0,0,0,0c0,0,0,0,0,0c0,0,0,0,0,0s0,0,0,0c0,0,0,0,0,0c0,0,0,0,0,0c0,0,0,0,0,0c0,0,0,0,0,0
	c0,0,0,0,0,0c0,0,0,0,0,0c0,0,0,0,0,0c0,0,0,0,0,0c0,0,0,0,0,0c0,0,0,0,0,0s0,0,0,0c0,0,0,0,0,0c0,0,0,0,0,0c0,0,0,0,0,0
	c0,0,0,0,0,0s0,0,0,0c0,0,0,0,0,0c0,0,0,0,0,0c0,0,0,0,0,0c0,0,0,0,0,0s0,0,0,0s0,0,0,0c0,0,0,0,0,0c0,0,0,0,0,0c0,0,0,0,0,0
	c0,0,0,0,0,0c0,0,0,0,0,0c0,0,0,0,0,0c0,0,0,0,0,0c0,0,0,0,0,0c0,0,0,0,0,0c0,0,0,0,0,0c0,0,0,0,0,0c0,0,0,0,0,0c0,0,0,0,0,0
	c0,0,0,0,0,0c0,0,0,0,0,0s0,0,0,0s0,0,0,0c0,0,0,0,0,0c0,0,0,0,0,0c0,0,0,0,0,0c0,0,0,0,0,0s0,0,0,0c0,0,0,0,0,0c0,0,0,0,0,0
	c0,0,0,0,0,0c0,0,0,0,0,0c0,0,0,0,0,0c0,0,0,0,0,0c0,0,0,0,0,0c0,0,0,0,0,0c0,0,0,0,0,0c0,0,0,0,0,0c0,0,0,0,0,0c0,0,0,0,0,0
	c0,0,0,0,0,0c0,0,0,0,0,0c0,0,0,0,0,0c0,0,0,0,0,0c0,0,0,0,0,0c0,0,0,0,0,0c0,0,0,0,0,0c0,0,0,0,0,0c0,0,0,0,0,0c0,0,0,0,0,0
	c0,0,0,0,0,0s0,0,0,0c0,0,0,0,0,0c0,0,0,0,0,0c0,0,0,0,0,0c0,0,0,0,0,0c0,0,0,0,0,0c0,0,0,0,0,0c0,0,0,0,0,0c0,0,0,0,0,0
	c0,0,0,0,0,0c0,0,0,0,0,0c0,0,0,0,0,0c0,0,0,0,0,0s0,0,0,0c0,0,0,0,0,0c0,0,0,0,0,0c0,0,0,0,0,0c0,0,0,0,0,0c0,0,0,0,0,0
	c0,0,0,0,0,0c0,0,0,0,0,0c0,0,0,0,0,0c0,0,0,0,0,0c0,0,0,0,0,0c0,0,0,0,0,0c0,0,0,0,0,0c0,0,0,0,0,0c0,0,0,0,0,0c0,0,0,0,0,0
	c0,0,0,0,0,0c0,0,0,0,0,0c0,0,0,0,0,0c0,0,0,0,0,0c0,0,0,0,0,0s0,0,0,0s0,0,0,0c0,0,0,0,0,0c0,0,0,0,0,0c0,0,0,0,0,0c0,0,0,0,0,0
	c0,0,0,0,0,0c0,0,0,0,0,0s0,0,0,0c0,0,0,0,0,0c0,0,0,0,0,0c0,0,0,0,0,0c0,0,0,0,0,0c0,0,0,0,0,0c0,0,0,0,0,0s0,0,0,0c0,0,0,0,0,0
	c0,0,0,0,0,0c0,0,0,0,0,0c0,0,0,0,0,0c0,0,0,0,0,0c0,0,0,0,0,0c0,0,0,0,0,0c0,0,0,0,0,0s0,0,0,0s0,0,0,0c0,0,0,0,0,0c0,0,0,0,0,0
	c0,0,0,0,0,0c0,0,0,0,0,0c0,0,0,0,0,0c0,0,0,0,0,0s0,0,0,0s0,0,0,0s0,0,0,0c0,0,0,0,0,0c0,0,0,0,0,0c0,0,0,0,0,0c0,0,0,0,0,0
	c0,0,0,0,0,0c0,0,0,0,0,0c0,0,0,0,0,0s0,0,0,0s0,0,0,0c0,0,0,0,0,0c0,0,0,0,0,0c0,0,0,0,0,0c0,0,0,0,0,0c0,0,0,0,0,0c0,0,0,0,0,0
	c0,0,0,0,0,0c0,0,0,0,0,0c0,0,0,0,0,0c0,0,0,0,0,0s0,0,0,0c0,0,0,0,0,0c0,0,0,0,0,0c0,0,0,0,0,0c0,0,0,0,0,0c0,0,0,0,0,0
	c0,0,0,0,0,0c0,0,0,0,0,0c0,0,0,0,0,0c0,0,0,0,0,0c0,0,0,0,0,0c0,0,0,0,0,0s0,0,0,0c0,0,0,0,0,0c0,0,0,0,0,0c0,0,0,0,0,0
	c0,0,0,0,0,0c0,0,0,0,0,0c0,0,0,0,0,0c0,0,0,0,0,0c0,0,0,0,0,0c0,0,0,0,0,0c0,0,0,0,0,0c0,0,0,0,0,0c0,0,0,0,0,0c0,0,0,0,0,0
	c0,0,0,0,0,0c0,0,0,0,0,0c0,0,0,0,0,0c0,0,0,0,0,0c0,0,0,0,0,0c0,0,0,0,0,0c0,0,0,0,0,0c0,0,0,0,0,0c0,0,0,0,0,0c0,0,0,0,0,0
	c0,0,0,0,0,0c0,0,0,0,0,0c0,0,0,0,0,0c0,0,0,0,0,0c0,0,0,0,0,0c0,0,0,0,0,0c0,0,0,0,0,0s0,0,0,0c0,0,0,0,0,0s0,0,0,0c0,0,0,0,0,0
	s0,0,0,0c0,0,0,0,0,0s0,0,0,0s0,0,0,0c0,0,0,0,0,0c0,0,0,0,0,0c0,0,0,0,0,0c0,0,0,0,0,0c0,0,0,0,0,0c0,0,0,0,0,0c0,0,0,0,0,0
	c0,0,0,0,0,0c0,0,0,0,0,0c0,0,0,0,0,0c0,0,0,0,0,0c0,0,0,0,0,0c0,0,0,0,0,0c0,0,0,0,0,0c0,0,0,0,0,0c0,0,0,0,0,0c0,0,0,0,0,0
	c0,0,0,0,0,0c0,0,0,0,0,0c0,0,0,0,0,0c0,0,0,0,0,0c0,0,0,0,0,0c0,0,0,0,0,0c0,0,0,0,0,0c0,0,0,0,0,0c0,0,0,0,0,0c0,0,0,0,0,0
	c0,0,0,0,0,0c0,0,0,0,0,0c0,0,0,0,0,0c0,0,0,0,0,0c0,0,0,0,0,0c0,0,0,0,0,0c0,0,0,0,0,0c0,0,0,0,0,0c0,0,0,0,0,0c0,0,0,0,0,0
	c0,0,0,0,0,0c0,0,0,0,0,0c0,0,0,0,0,0c0,0,0,0,0,0c0,0,0,0,0,0c0,0,0,0,0,0c0,0,0,0,0,0c0,0,0,0,0,0c0,0,0,0,0,0c0,0,0,0,0,0
	c0,0,0,0,0,0c0,0,0,0,0,0c0,0,0,0,0,0c0,0,0,0,0,0c0,0,0,0,0,0c0,0,0,0,0,0s0,0,0,0s0,0,0,0c0,0,0,0,0,0s0,0,0,0c0,0,0,0,0,0
	s0,0,0,0c0,0,0,0,0,0c0,0,0,0,0,0c0,0,0,0,0,0c0,0,0,0,0,0c0,0,0,0,0,0c0,0,0,0,0,0c0,0,0,0,0,0c0,0,0,0,0,0c0,0,0,0,0,0
	c0,0,0,0,0,0c0,0,0,0,0,0s0,0,0,0s0,0,0,0s0,0,0,0s0,0,0,0s0,0,0,0c0,0,0,0,0,0c0,0,0,0,0,0c0,0,0,0,0,0c0,0,0,0,0,0c0,0,0,0,0,0
	c0,0,0,0,0,0c0,0,0,0,0,0c0,0,0,0,0,0s0,0,0,0s0,0,0,0s0,0,0,0s0,0,0,0c0,0,0,0,0,0c0,0,0,0,0,0c0,0,0,0,0,0c0,0,0,0,0,0
	c0,0,0,0,0,0c0,0,0,0,0,0c0,0,0,0,0,0c0,0,0,0,0,0c0,0,0,0,0,0c0,0,0,0,0,0c0,0,0,0,0,0c0,0,0,0,0,0c0,0,0,0,0,0c0,0,0,0,0,0
	c0,0,0,0,0,0c0,0,0,0,0,0c0,0,0,0,0,0c0,0,0,0,0,0s0,0,0,0c0,0,0,0,0,0c0,0,0,0,0,0c0,0,0,0,0,0c0,0,0,0,0,0c0,0,0,0,0,0s0,0,0,0
	s0,0,0,0s0,0,0,0c0,0,0,0,0,0c0,0,0,0,0,0c0,0,0,0,0,0c0,0,0,0,0,0s0,0,0,0s0,0,0,0s0,0,0,0c0,0,0,0,0,0c0,0,0,0,0,0c0,0,0,0,0,0
	c0,0,0,0,0,0s0,0,0,0s0,0,0,0c0,0,0,0,0,0c0,0,0,0,0,0c0,0,0,0,0,0c0,0,0,0,0,0c0,0,0,0,0,0s0,0,0,0c0,0,0,0,0,0c0,0,0,0,0,0
	c0,0,0,0,0,0c0,0,0,0,0,0c0,0,0,0,0,0c0,0,0,0,0,0c0,0,0,0,0,0c0,0,0,0,0,0c0,0,0,0,0,0c0,0,0,0,0,0c0,0,0,0,0,0c0,0,0,0,0,0
	c0,0,0,0,0,0c0,0,0,0,0,0c0,0,0,0,0,0c0,0,0,0,0,0c0,0,0,0,0,0c0,0,0,0,0,0c0,0,0,0,0,0c0,0,0,0,0,0c0,0,0,0,0,0s0,0,0,0
	c0,0,0,0,0,0c0,0,0,0,0,0s0,0,0,0s0,0,0,0c0,0,0,0,0,0c0,0,0,0,0,0s0,0,0,0c0,0,0,0,0,0s0,0,0,0c0,0,0,0,0,0c0,0,0,0,0,0
	c0,0,0,0,0,0s0,0,0,0c0,0,0,0,0,0c0,0,0,0,0,0c0,0,0,0,0,0s0,0,0,0c0,0,0,0,0,0c0,0,0,0,0,0s0,0,0,0c0,0,0,0,0,0c0,0,0,0,0,0
	c0,0,0,0,0,0c0,0,0,0,0,0c0,0,0,0,0,0c0,0,0,0,0,0c0,0,0,0,0,0c0,0,0,0,0,0c0,0,0,0,0,0c0,0,0,0,0,0c0,0,0,0,0,0c0,0,0,0,0,0
	c0,0,0,0,0,0c0,0,0,0,0,0c0,0,0,0,0,0c0,0,0,0,0,0c0,0,0,0,0,0c0,0,0,0,0,0s0,0,0,0c0,0,0,0,0,0c0,0,0,0,0,0s0,0,0,0s0,0,0,0
	c0,0,0,0,0,0s0,0,0,0c0,0,0,0,0,0c0,0,0,0,0,0c0,0,0,0,0,0s0,0,0,0c0,0,0,0,0,0c0,0,0,0,0,0c0,0,0,0,0,0c0,0,0,0,0,0c0,0,0,0,0,0
	s0,0,0,0s0,0,0,0c0,0,0,0,0,0s0,0,0,0s0,0,0,0c0,0,0,0,0,0s0,0,0,0s0,0,0,0c0,0,0,0,0,0c0,0,0,0,0,0c0,0,0,0,0,0c0,0,0,0,0,0
	s0,0,0,0c0,0,0,0,0,0c0,0,0,0,0,0c0,0,0,0,0,0c0,0,0,0,0,0c0,0,0,0,0,0c0,0,0,0,0,0c0,0,0,0,0,0c0,0,0,0,0,0s0,0,0,0c0,0,0,0,0,0
	s0,0,0,0c0,0,0,0,0,0c0,0,0,0,0,0s0,0,0,0c0,0,0,0,0,0c0,0,0,0,0,0s0,0,0,0c0,0,0,0,0,0c0,0,0,0,0,0c0,0,0,0,0,0s0,0,0,0V23.9z
	 M4.5,23.9c2.7-0.4,4.8-2,5.6-2.5l-0.6-0.8c-0.7,0.5-2.7,1.9-5.1,2.3L4.5,23.9z M9.7,21.5c0.6,0.1,1.7,0.3,2.8,0.3v-1
	c-0.9,0-2-0.2-2.6-0.3L9.7,21.5z M12.5,21.8c6.5,0,12-4.7,12-10.6h-1c0,5.3-4.9,9.6-11,9.6V21.8z M24.5,11.2c0-5.9-5.4-10.7-12-10.7
	v1c6.1,0,11,4.4,11,9.7H24.5z M12.5,19.3c-0.6,0-1.2-0.1-1.7-0.2c-0.3,0-0.5-0.1-0.6-0.1c-0.1,0-0.1,0-0.2,0c0,0,0,0,0,0
	c0,0,0,0,0,0c0,0,0,0,0,0c0,0,0,0,0,0c0,0,0.1,0,0.1,0.1l-0.7,0.7c0.1,0.1,0.1,0.1,0.1,0.1c0,0,0,0,0.1,0c0,0,0,0,0.1,0
	c0,0,0.1,0,0.1,0c0.1,0,0.1,0,0.2,0.1c0.2,0,0.4,0.1,0.7,0.1c0.5,0.1,1.2,0.2,1.9,0.2V19.3z M9.9,18.9l-0.4-0.1l-0.2,1l0.4,0.1
	L9.9,18.9z M9.1,18.9l-0.3,0.3l0.7,0.7l0.3-0.3L9.1,18.9z M9.1,19.1c-0.1,0-0.2,0-0.2,0c0,0,0,0-0.1,0c0,0,0,0,0,0c0,0,0,0,0,0
	c0,0,0,0-0.1,0.1c-0.1,0-0.1,0.1-0.2,0.2c-0.2,0.1-0.4,0.3-0.8,0.5c-0.6,0.4-1.5,0.9-2.6,1.2l0.3,1c1.2-0.4,2.1-0.9,2.8-1.4
	c0.3-0.2,0.6-0.4,0.8-0.6c0.1-0.1,0.2-0.1,0.2-0.2c0,0,0,0,0,0c0,0,0,0,0,0c0,0,0,0,0,0c0,0,0,0-0.1,0c0,0-0.1,0-0.2,0V19.1z
	 M5.7,22c0.6-0.8,1-1.5,1.2-2.1c0.1-0.3,0.2-0.5,0.2-0.7c0-0.1,0-0.2,0.1-0.2c0,0,0-0.1,0-0.2h-1c0,0,0-0.1,0,0c0,0,0,0.1,0,0.2
	c0,0.1-0.1,0.3-0.2,0.6c-0.2,0.5-0.5,1.1-1.1,1.9L5.7,22z M7.2,18.8l0.1-0.5l-1-0.1l-0.1,0.5L7.2,18.8z M7.1,17.9l-0.4-0.3l-0.6,0.8
	l0.4,0.3L7.1,17.9z M6.7,17.6c-2.4-1.6-3.7-3.9-3.7-6.5h-1c0,2.9,1.5,5.5,4.2,7.3L6.7,17.6z M2.9,11.1C2.9,6.7,7.2,3,12.5,3V2
	C6.8,2,1.9,6,1.9,11.1H2.9z M12.5,3c5.3,0,9.5,3.7,9.5,8.1h1C23,6,18.2,2,12.5,2V3z M22,11.1c0,4.4-4.2,8.1-9.5,8.1v1
	c5.7,0,10.5-4,10.5-9.1H22z"/>
</svg>
