<?xml version="1.0" encoding="utf-8"?>
<!-- Generator: Adobe Illustrator 24.0.1, SVG Export Plug-In . SVG Version: 6.00 Build 0)  -->
<svg version="1.1" id="Layer_1" xmlns="http://www.w3.org/2000/svg" xmlns:xlink="http://www.w3.org/1999/xlink" x="0px" y="0px"
	 viewBox="0 0 100 100" style="enable-background:new 0 0 100 100;" xml:space="preserve">
<path d="M55,40.5V22.7C55,10.2,65,0,77.4,0c3.9,0,7.7,1,11.1,2.9c3.4,1.9,6.2,4.7,8.2,8c2,3.3,3.1,7.2,3.2,11.1
	c0.1,3.9-0.8,7.8-2.7,11.2c-3.9,7.2-11.5,11.7-19.8,11.7H75c-1.1,0-2.2-0.5-3-1.3c-0.8-0.8-1.3-1.9-1.3-3c0-1.1,0.5-2.2,1.3-3
	c0.8-0.8,1.9-1.3,3-1.3h2.6c5.1,0,9.8-2.7,12.2-7.1c1.1-2.1,1.7-4.5,1.7-6.9c-0.1-2.4-0.7-4.8-2-6.8c-1.2-2.1-3-3.8-5.1-5
	c-2.1-1.2-4.5-1.8-6.9-1.8c-7.6,0-13.9,6.4-13.9,14.1v13.5c0,0-0.3,8.6-8.6,8.6V40.5z"/>
<path d="M45,59.5v17.8C45,89.8,35,100,22.6,100c-3.9,0-7.7-1-11.1-2.9c-3.4-1.9-6.2-4.7-8.2-8C1.2,85.7,0.1,81.9,0,78
	c-0.1-3.9,0.8-7.8,2.7-11.2c3.9-7.2,11.5-11.7,19.8-11.7H25c1.1,0,2.2,0.5,3,1.3s1.3,1.9,1.3,3s-0.5,2.2-1.3,3
	c-0.8,0.8-1.9,1.3-3,1.3h-2.6c-5.1,0-9.8,2.7-12.2,7.1c-1.1,2.1-1.7,4.5-1.7,6.9c0.1,2.4,0.7,4.8,2,6.8c1.2,2.1,3,3.8,5.1,5
	s4.5,1.8,6.9,1.8c7.6,0,13.9-6.4,13.9-14.1V63.8c0,0,0.3-8.6,8.6-8.6L45,59.5z"/>
<path d="M59.5,55h17.8C89.8,55,100,65,100,77.4c0,3.9-1,7.7-2.9,11.1c-1.9,3.4-4.7,6.2-8,8.2c-3.3,2-7.2,3.1-11,3.2
	c-3.9,0.1-7.8-0.8-11.2-2.7c-7.2-3.9-11.7-11.5-11.7-19.8V75c0-1.1,0.5-2.2,1.3-3c0.8-0.8,1.9-1.3,3-1.3c1.1,0,2.2,0.5,3,1.3
	c0.8,0.8,1.3,1.9,1.3,3v2.6c0,5.1,2.7,9.8,7.1,12.2c2.1,1.1,4.5,1.7,6.9,1.7c2.4-0.1,4.8-0.7,6.8-2c2.1-1.2,3.8-3,5-5.1
	c1.2-2.1,1.8-4.5,1.8-6.9c0-7.6-6.3-13.9-14.1-13.9H63.8c0,0-8.6-0.3-8.6-8.6L59.5,55z"/>
<path d="M40.5,45H22.7C10.2,45,0,35,0,22.6c0-3.9,1-7.7,2.9-11.1c1.9-3.4,4.7-6.2,8-8.2c3.3-2,7.2-3.1,11.1-3.2
	c3.9-0.1,7.8,0.8,11.2,2.7c7.2,3.9,11.7,11.5,11.7,19.8V25c0,1.1-0.5,2.2-1.3,3c-0.8,0.8-1.9,1.3-3,1.3c-1.1,0-2.2-0.5-3-1.3
	c-0.8-0.8-1.3-1.9-1.3-3v-2.6c0-5.1-2.7-9.8-7.1-12.2c-2.1-1.1-4.5-1.7-6.9-1.7c-2.4,0.1-4.8,0.7-6.8,2c-2.1,1.2-3.8,3-5,5.1
	c-1.2,2.1-1.8,4.5-1.8,6.9c0,7.6,6.3,13.9,14.1,13.9h13.5c0,0,8.6,0.3,8.6,8.6L40.5,45z"/>
</svg>
