<svg width="100" height="100" viewBox="0 0 100 100" fill="none" xmlns="http://www.w3.org/2000/svg">
<path d="M54.9707 40.5321V22.7101C54.9707 10.2241 65.0347 0.0360519 77.4067 5.18984e-05C81.3058 -0.0104986 85.1408 0.992092 88.5359 2.90959C91.931 4.82708 94.7697 7.5937 96.7739 10.9383C98.778 14.283 99.8789 18.0909 99.9686 21.9891C100.058 25.8872 99.1339 29.7417 97.2857 33.1751C93.4027 40.3671 85.8257 44.8351 77.5117 44.8351H74.9577C73.8173 44.8351 72.7236 44.382 71.9171 43.5756C71.1107 42.7692 70.6577 41.6755 70.6577 40.5351C70.6577 39.3946 71.1107 38.3009 71.9171 37.4945C72.7236 36.6881 73.8173 36.2351 74.9577 36.2351H77.5117C82.6597 36.2351 87.3357 33.4981 89.7117 29.0921C90.8533 26.9712 91.4242 24.5901 91.3684 22.1821C91.3126 19.7742 90.6321 17.422 89.3935 15.3563C88.155 13.2905 86.4009 11.5821 84.3032 10.3984C82.2055 9.21466 79.8363 8.59636 77.4277 8.60406C69.7867 8.62606 63.5707 14.9541 63.5707 22.7101V36.1941C63.5707 36.1941 63.2707 44.8351 54.9707 44.8351V40.5321Z" fill="#F54D1F"/>
<path d="M45.0287 59.4672V77.2942C45.0287 89.7812 34.9636 99.9693 22.5916 100.005C18.6917 100.016 14.8558 99.0141 11.4599 97.0964C8.064 95.1787 5.22468 92.4115 3.22025 89.0661C1.21581 85.7207 0.115068 81.9118 0.0259039 78.0129C-0.0632603 74.114 0.862218 70.2588 2.71162 66.8252C6.59462 59.6332 14.1716 55.1652 22.4856 55.1652H25.0396C26.1801 55.1652 27.2738 55.6182 28.0802 56.4246C28.8866 57.231 29.3396 58.3248 29.3396 59.4652C29.3396 60.6056 28.8866 61.6994 28.0802 62.5058C27.2738 63.3122 26.1801 63.7652 25.0396 63.7652H22.4856C17.3376 63.7652 12.6616 66.5022 10.2856 70.9082C9.14465 73.0288 8.57415 75.4094 8.63003 77.8169C8.68592 80.2243 9.36627 82.5759 10.6044 84.6412C11.8426 86.7066 13.596 88.4149 15.693 89.5987C17.79 90.7825 20.1586 91.4012 22.5666 91.3942C30.2066 91.3712 36.4226 85.0432 36.4226 77.2872V63.8062C36.4226 63.8062 36.7176 55.1652 45.0277 55.1652L45.0287 59.4672Z" fill="#0ACE83"/>
<path d="M59.4666 54.9722H77.2885C89.7755 54.9722 99.9635 65.0372 99.9985 77.4082C100.009 81.3067 99.0064 85.1411 97.0893 88.5357C95.1721 91.9303 92.406 94.7686 89.062 96.7727C85.718 98.7768 81.9108 99.8779 78.0133 99.968C74.1158 100.058 70.2617 99.1344 66.8286 97.2872C59.6286 93.4052 55.1646 85.8282 55.1646 77.5132V74.9602C55.1646 73.8197 55.6176 72.726 56.424 71.9196C57.2304 71.1132 58.3241 70.6602 59.4646 70.6602C60.605 70.6602 61.6987 71.1132 62.5051 71.9196C63.3115 72.726 63.7645 73.8197 63.7645 74.9602V77.5132C63.7645 82.6612 66.5015 87.3372 70.9075 89.7132C73.0281 90.8544 75.4087 91.4251 77.8162 91.3693C80.2237 91.3136 82.5754 90.6334 84.6409 89.3953C86.7064 88.1573 88.4148 86.4038 89.5987 84.3069C90.7826 82.2099 91.4015 79.8413 91.3945 77.4332C91.3725 69.7922 85.0445 63.5762 77.2885 63.5762H63.8046C63.8046 63.5762 55.1646 63.2822 55.1646 54.9762L59.4666 54.9722Z" fill="#A259FF"/>
<path d="M40.5291 45.0309H22.7101C10.2231 45.0309 0.0351221 34.9658 0.000122065 22.5968C-0.0127225 18.6969 0.988347 14.8606 2.90514 11.4642C4.82194 8.06777 7.58863 5.2279 10.9339 3.22313C14.2791 1.21835 18.088 0.117504 21.9869 0.0285688C25.8859 -0.0603663 29.741 0.865661 33.1741 2.71582C40.3661 6.59683 44.8341 14.1748 44.8341 22.4898V25.0428C44.8341 26.1833 44.3811 27.277 43.5747 28.0834C42.7683 28.8898 41.6746 29.3428 40.5341 29.3428C39.3937 29.3428 38.3 28.8898 37.4936 28.0834C36.6872 27.277 36.2341 26.1833 36.2341 25.0428V22.4898C36.2341 17.3408 33.4971 12.6648 29.0911 10.2898C26.9706 9.14865 24.5899 8.57796 22.1825 8.63368C19.775 8.68939 17.4233 9.36961 15.3578 10.6077C13.2923 11.8457 11.5839 13.5992 10.4 15.6961C9.21605 17.7931 8.59722 20.1617 8.60413 22.5698C8.62613 30.2098 14.9541 36.4268 22.7101 36.4268H36.1941C36.1941 36.4268 44.8341 36.7208 44.8341 45.0268L40.5291 45.0309Z" fill="#1BBCFE"/>
</svg>
