<svg width="25" height="23" viewBox="0 0 25 23" fill="none" xmlns="http://www.w3.org/2000/svg">
<path fill-rule="evenodd" clip-rule="evenodd" d="M12.75 0C6.15 0 0.75 4.5375 0.75 10.125C0.75 13.1625 2.3625 16.05 5.1375 17.9625C4.9125 18.525 4.4625 19.5 3.4125 20.475C3.075 20.775 2.9625 21.2625 3.1125 21.7125C3.3 22.1625 3.7125 22.425 4.1625 22.425C4.2 22.425 4.275 22.425 4.35 22.425C7.05 22.0125 9.1875 20.55 9.9375 19.9875C10.5375 20.1 11.7 20.325 12.75 20.325C19.35 20.325 24.75 15.7875 24.75 10.2C24.75 4.6125 19.35 0 12.75 0ZM12.75 18.75C11.5125 18.75 9.9375 18.4125 9.9 18.375L9.525 18.3L9.225 18.5625C9.1875 18.5625 7.5375 19.9875 5.25 20.6625C6.45 19.1625 6.7125 17.85 6.7125 17.775L6.7875 17.2875L6.375 17.025C3.75 15.3375 2.25 12.8625 2.25 10.125C2.25 5.3625 6.975 1.5 12.75 1.5C18.525 1.5 23.25 5.3625 23.25 10.125C23.25 14.8875 18.525 18.75 12.75 18.75Z" fill="#5E6272"/>
</svg>
