<svg width="24" height="24" viewBox="0 0 24 24" fill="none" xmlns="http://www.w3.org/2000/svg">
<mask id="mask0_1424_66918" style="mask-type:alpha" maskUnits="userSpaceOnUse" x="0" y="0" width="24" height="24">
<path d="M19.7839 19.7807L4 3.99675H0V24H24V0H5.69812V2.86644L21.1981 18.3664L19.7839 19.7807Z" fill="white"/>
</mask>
<g mask="url(#mask0_1424_66918)">
<path d="M3.52441 4.94141L19.0244 20.4414" stroke="white" stroke-width="2"/>
<path d="M12 23V19.5455M12 19.5455C8.13401 19.5455 5 16.615 5 13M12 19.5455C15.866 19.5455 19 16.615 19 13" stroke="white" stroke-width="2"/>
<path d="M9 6C9 4.34315 10.3431 3 12 3C13.6569 3 15 4.34315 15 6V12C15 13.6569 13.6569 15 12 15C10.3431 15 9 13.6569 9 12V6Z" stroke="white" stroke-width="2"/>
</g>
</svg>
