<svg width="24" height="24" viewBox="0 0 24 24" fill="none" xmlns="http://www.w3.org/2000/svg">
<path d="M5 11V19C5 19.5523 5.44772 20 6 20H18C18.5523 20 19 19.5523 19 19V11" stroke="#ffffff" stroke-width="2" stroke-linecap="round" stroke-linejoin="round"/>
<path d="M3.00022 8C3.5002 5.5 5.00022 4 5.00022 4H19.0002C19.0002 4 20.5002 5.5 21.0002 8C21.5002 10.5 20.0002 11 18.0002 11C16.4002 11 16.0002 9.66667 16.0002 9C16.0002 9.66667 15.6002 11 14.0002 11C12.4002 11 12.0002 9.66667 12.0002 9C12.0002 9.66667 11.6002 11 10.0002 11C8.40022 11 8.00022 9.66667 8.00022 9C8.00022 9.66667 7.60022 11 6.00022 11C4.00025 11 2.50024 10.5 3.00022 8Z" stroke="#ffffff" stroke-width="2" stroke-linecap="round" stroke-linejoin="round"/>
</svg>
