<svg width="28" height="28" viewBox="0 0 28 28" fill="none" xmlns="http://www.w3.org/2000/svg">
<path fill-rule="evenodd" clip-rule="evenodd" d="M0.336336 7.84487C0.224224 7.71971 0.14014 7.59008 0.0840841 7.45598C0.0280277 7.32188 0 7.16543 0 6.98663C0 6.82571 0.0280277 6.67373 0.0840841 6.53069C0.14014 6.38765 0.224224 6.26249 0.336336 6.15521C0.448449 6.04793 0.579245 5.96747 0.728729 5.91383C0.878212 5.86019 1.03704 5.83337 1.20521 5.83337H26.7948C26.963 5.83337 27.1218 5.86019 27.2713 5.91383C27.4208 5.96747 27.5515 6.04793 27.6637 6.15521C27.7758 6.26249 27.8599 6.38765 27.9159 6.53069C27.972 6.67373 28 6.82571 28 6.98663C28 7.16543 27.972 7.32188 27.9159 7.45598C27.8599 7.59008 27.7758 7.71971 27.6637 7.84487C27.5515 7.95215 27.4208 8.03261 27.2713 8.08625C27.1218 8.13989 26.963 8.16671 26.7948 8.16671H1.20521C1.03704 8.16671 0.878212 8.13989 0.728729 8.08625C0.579245 8.03261 0.448449 7.95215 0.336336 7.84487ZM0.336336 14.8449C0.224224 14.7197 0.14014 14.5901 0.0840841 14.456C0.0280277 14.3219 0 14.1654 0 13.9866C0 13.8257 0.0280277 13.6737 0.0840841 13.5307C0.14014 13.3877 0.224224 13.2625 0.336336 13.1552C0.448449 13.0479 0.579245 12.9675 0.728729 12.9138C0.878212 12.8602 1.03704 12.8334 1.20521 12.8334H26.7948C26.963 12.8334 27.1218 12.8602 27.2713 12.9138C27.4208 12.9675 27.5515 13.0479 27.6637 13.1552C27.7758 13.2625 27.8599 13.3877 27.9159 13.5307C27.972 13.6737 28 13.8257 28 13.9866C28 14.1654 27.972 14.3219 27.9159 14.456C27.8599 14.5901 27.7758 14.7197 27.6637 14.8449C27.5515 14.9521 27.4208 15.0326 27.2713 15.0862C27.1218 15.1399 26.963 15.1667 26.7948 15.1667H1.20521C1.03704 15.1667 0.878212 15.1399 0.728729 15.0862C0.579245 15.0326 0.448449 14.9521 0.336336 14.8449ZM0.0840841 21.456C0.14014 21.5901 0.224224 21.7197 0.336336 21.8449C0.448449 21.9522 0.579245 22.0326 0.728729 22.0862C0.878212 22.1399 1.03704 22.1667 1.20521 22.1667H26.7948C26.963 22.1667 27.1218 22.1399 27.2713 22.0862C27.4208 22.0326 27.5515 21.9522 27.6637 21.8449C27.7758 21.7197 27.8599 21.5901 27.9159 21.456C27.972 21.3219 28 21.1654 28 20.9866C28 20.8257 27.972 20.6737 27.9159 20.5307C27.8599 20.3877 27.7758 20.2625 27.6637 20.1552C27.5515 20.0479 27.4208 19.9675 27.2713 19.9138C27.1218 19.8602 26.963 19.8334 26.7948 19.8334H1.20521C1.03704 19.8334 0.878212 19.8602 0.728729 19.9138C0.579245 19.9675 0.448449 20.0479 0.336336 20.1552C0.224224 20.2625 0.14014 20.3877 0.0840841 20.5307C0.0280277 20.6737 0 20.8257 0 20.9866C0 21.1654 0.0280277 21.3219 0.0840841 21.456Z" fill="#C0C1C6"/>
</svg>
