<svg width="25" height="24" viewBox="0 0 25 24" fill="none" xmlns="http://www.w3.org/2000/svg">
<path fill-rule="evenodd" clip-rule="evenodd" d="M12.75 1C6.15 1 0.75 5.5375 0.75 11.125C0.75 14.1625 2.3625 17.05 5.1375 18.9625C4.9125 19.525 4.4625 20.5 3.4125 21.475C3.075 21.775 2.9625 22.2625 3.1125 22.7125C3.3 23.1625 3.7125 23.425 4.1625 23.425C4.2 23.425 4.275 23.425 4.35 23.425C7.05 23.0125 9.1875 21.55 9.9375 20.9875C10.5375 21.1 11.7 21.325 12.75 21.325C19.35 21.325 24.75 16.7875 24.75 11.2C24.75 5.6125 19.35 1 12.75 1ZM12.75 19.75C11.5125 19.75 9.9375 19.4125 9.9 19.375L9.525 19.3L9.225 19.5625C9.1875 19.5625 7.5375 20.9875 5.25 21.6625C6.45 20.1625 6.7125 18.85 6.7125 18.775L6.7875 18.2875L6.375 18.025C3.75 16.3375 2.25 13.8625 2.25 11.125C2.25 6.3625 6.975 2.5 12.75 2.5C18.525 2.5 23.25 6.3625 23.25 11.125C23.25 15.8875 18.525 19.75 12.75 19.75Z" fill="#C0C1C6"/>
</svg>
