<svg width="29" height="28" viewBox="0 0 29 28" fill="none" xmlns="http://www.w3.org/2000/svg">
<path fill-rule="evenodd" clip-rule="evenodd" d="M11.9165 12.8334C9.58317 12.8334 8.4165 11.6667 8.4165 9.33337C8.4165 7.00004 9.58317 5.83337 11.9165 5.83337C14.2498 5.83337 15.4165 7.00004 15.4165 9.33337C15.4165 11.6667 14.2498 12.8334 11.9165 12.8334Z" stroke="#C0C1C6" stroke-width="2" stroke-linecap="round" stroke-linejoin="round"/>
<path d="M3.75 22.1667C3.75 18.9 4.91667 16.3334 11.9167 16.3334C18.9167 16.3334 20.0833 18.9 20.0833 22.1667" stroke="#C0C1C6" stroke-width="2" stroke-linecap="round" stroke-linejoin="round"/>
<path d="M17.75 5.83337C18.9167 5.83337 20.0833 7.00004 20.0833 9.33337C20.0833 11.6667 18.9167 12.8334 17.75 12.8334" stroke="#C0C1C6" stroke-width="2" stroke-linecap="round" stroke-linejoin="round"/>
<path d="M22.4165 17.5C24.2855 18.5512 24.7498 20.1985 24.7498 22.1667" stroke="#C0C1C6" stroke-width="2" stroke-linecap="round" stroke-linejoin="round"/>
</svg>
