<svg width="21" height="18" viewBox="0 0 21 18" fill="none" xmlns="http://www.w3.org/2000/svg">
<path fill-rule="evenodd" clip-rule="evenodd" d="M4.38681 18C4.07571 18 3.84014 17.7189 3.89451 17.4126L4.50025 14H1.09535C0.784734 14 0.549294 13.7198 0.602834 13.4138L0.777834 12.4138C0.819704 12.1746 1.02746 12 1.27035 12H4.85025L5.91025 6H2.50535C2.19473 6 1.95929 5.71977 2.01283 5.41381L2.18783 4.41381C2.2297 4.17456 2.43746 4 2.68035 4H6.26025L6.89701 0.41262C6.93938 0.17391 7.14688 0 7.38931 0H8.37368C8.68474 0 8.92034 0.28107 8.86594 0.58738L8.26025 4H14.2602L14.897 0.41262C14.9393 0.17391 15.1468 0 15.3893 0H16.3736C16.6847 0 16.9203 0.28107 16.8659 0.58738L16.2602 4H19.6651C19.9757 4 20.2112 4.28023 20.1576 4.58619L19.9826 5.58619C19.9408 5.82544 19.733 6 19.4901 6H15.9102L14.8502 12H18.2551C18.5657 12 18.8012 12.2802 18.7476 12.5862L18.5726 13.5862C18.5308 13.8254 18.323 14 18.0801 14H14.5002L13.8634 17.5874C13.8211 17.8261 13.6136 18 13.3711 18H12.3868C12.0757 18 11.8401 17.7189 11.8945 17.4126L12.5002 14H6.50025L5.86349 17.5874C5.82112 17.8261 5.61361 18 5.37118 18H4.38681ZM7.91069 6L6.85069 12H12.8506L13.9106 6H7.91069Z" fill="#5E6272"/>
</svg>
