<?xml version="1.0" encoding="utf-8"?>
<!-- Generator: Adobe Illustrator 25.2.0, SVG Export Plug-In . SVG Version: 6.00 Build 0)  -->
<svg version="1.1" id="Layer_1" xmlns="http://www.w3.org/2000/svg" xmlns:xlink="http://www.w3.org/1999/xlink" x="0px" y="0px"
	 viewBox="0 0 278.5 103.2" style="enable-background:new 0 0 278.5 103.2;" xml:space="preserve">
<g>
	<path d="M52.9,11.3L52.9,11.3C46.5,8,37.6,7,30.7,8.9c-11,3.1-19.6,11.9-22.4,23c-0.6,2.9-0.8,9.6-0.9,29.7v29l9.5-1.2l0.4-33.6
		c0.2-18.9,0.3-24.4,2.2-27.4c0.6-1,1.5-2,3-3.5l0.7-0.8c6.7-7.1,16.2-8.9,24.7-4.7c3.4,1.7,8.1,6.6,10.1,10.4
		c1.3,2.4,1.3,2.6,1.3,8.5c0,5.9,0,5.9-1.7,9.3l-0.1,0.2c-3.2,6.5-8.5,10.7-15,11.9c-3.5,0.7-9.3,0.1-10.4-0.5
		c-2.3-1.2-4.5-0.8-6,1.4c-1,1.4-1.2,2.8-0.8,4.2c0.8,2.2,3.1,3.1,5.4,3.7c4.5,1.3,11.9,1.1,16.6-0.4c5.7-1.8,9.4-4.1,13.6-8.6
		c6-6.5,8.1-12,8.1-21.1c0-6.4-1.1-10.6-4.3-16.1C62.6,18.8,56.7,13.3,52.9,11.3z"/>
	<path d="M90.4,28.4v9.3h46.7l-1-5.9c-1.2-7-8.9-17.1-15.6-20.3c-7.3-3.6-14.7-4.5-22-2.6c-8.4,2.1-16.1,8.6-20.2,17
		c-2.4,4.9-2.6,5.7-2.6,12.9c0,7.2,0.1,7.9,2.6,13c5.4,11.1,16,17.9,27.6,17.9c3,0,6-0.5,9-1.5c5.2-1.7,7.3-2.8,10.7-5.8
		c2.2-2,3.3-3.9,3.4-5.7c0-1.5-0.7-2.4-1-2.7c-0.9-0.9-3.6-2.7-8.4,1.2c-8.7,7.2-20.5,6.5-28.5-1.5c-4.1-4.2-6.4-9.6-6.3-15.2
		c0.1-5.5,2.5-10.8,6.9-14.9c9-8.2,20.8-8.1,29.3,0.3c1.5,1.4,2.6,3,3.4,4.3c-3.3,0.1-7.9,0.2-13.6,0.2H90.4z"/>
	<path d="M177.6,28.4L177.6,28.4c-3,0.1-5.5,0.1-7.5,0.1c-4.1,0.1-6.6,0.1-8.2,0.3c-1.4,0.1-5.1,0.3-5.1,4.2c0,3.6,3.4,4,5,4.2
		l0.3,0c2.7,0.2,8,0.2,17.6,0.2h23.3l-0.6-5.3c-0.7-6.8-8.6-17.1-15.8-20.8C179.8,8,171.4,7.1,164.8,9c-9.9,2.7-18.8,11.3-21.5,20.8
		c-1.6,5.3-1.4,14.4,0.3,19.1c3,8.5,9.6,15.2,17.9,18.5c3.7,1.5,7.5,2.2,11.4,2.2c4.7,0,9.5-1.2,13.8-3.4c0.1-0.1,10.9-5.5,8.8-10.7
		c-0.9-2.1-2.5-2.7-3-2.8l-0.1,0c-2.3-0.5-4.3,1-6,2.6c-2.3,2.2-7.5,4.5-10.9,4.9c-6.8,0.8-12.9-1.5-17.8-6.6
		c-4.5-4.8-5.7-7.8-5.7-14.4c0-5.1,0.1-5.5,1.6-8.6c4.2-8.8,13.6-14.2,22.4-12.8c6.2,1,12.3,5.1,15.1,10.2L191,28
		c0,0,0.1,0.1,0.1,0.1c-1.8,0.1-4.3,0.1-7.1,0.2L177.6,28.4z"/>
	<path d="M268.6,29.4c-3.5-10.1-11-17.5-20.8-20.4c-4.7-1.4-13.7-1.3-18.1,0.3c-14.7,5.1-23.5,19.5-21,34.4
		c1.9,11.7,11.1,22,22.4,25.1c5.6,1.5,16.5,1.3,20.1-2.1l0.1-0.1c0.5-0.5,1.4-1.4,1.4-3c0-1.6-1-2.7-1.5-3.2c-2.1-2.1-4.3-1.7-6-1
		c-0.4,0.1-3.1,0.5-6.4,0.5H238c-4.1,0-4.5-0.2-7.4-1.5c-5.6-2.7-9.5-7.2-12.2-13.7c-0.6-1.4-0.6-10.4,0-11.8
		c1.7-4.3,2.2-5.1,4.3-7.7c5.8-7.3,15.3-9.8,24.3-6.4c3.9,1.5,9.6,6.8,11.7,11l1.4,2.9l0.4,54.3v3.1h9.2V60
		C269.7,36.1,269.5,32,268.6,29.4z"/>
</g>
</svg>
