<svg width="9" height="10" viewBox="0 0 9 10" fill="none" xmlns="http://www.w3.org/2000/svg">
<path fill-rule="evenodd" clip-rule="evenodd" d="M5.19143 1.48899C5.14524 1.14846 4.85333 0.885986 4.50013 0.885986C4.11481 0.885986 3.80245 1.19835 3.80245 1.58366V4.29359H1.08928L0.994606 4.29996C0.65407 4.34616 0.391602 4.63806 0.391602 4.99127C0.391602 5.37658 0.703961 5.68894 1.08928 5.68894H3.80245V8.39888L3.80882 8.49355C3.85502 8.83408 4.14692 9.09655 4.50013 9.09655C4.88544 9.09655 5.1978 8.78419 5.1978 8.39888V5.68894H7.91098L8.00565 5.68257C8.34619 5.63638 8.60866 5.34447 8.60866 4.99127C8.60866 4.60595 8.2963 4.29359 7.91098 4.29359H5.1978V1.58366L5.19143 1.48899Z" fill="white"/>
</svg>
