<svg width="23" height="22" viewBox="0 0 23 22" fill="none" xmlns="http://www.w3.org/2000/svg">
<path fill-rule="evenodd" clip-rule="evenodd" d="M17.1183 15.5584C18.5189 13.8927 19.3896 11.7729 19.3896 9.42587C19.3896 4.23975 15.1498 0 9.92587 0C4.70189 0 0.5 4.23975 0.5 9.42587C0.5 14.612 4.73975 18.8517 9.92587 18.8517C12.2729 18.8517 14.3927 18.0189 16.0584 16.5804L21.0096 21.6956C21.3003 21.9959 21.7806 21.9998 22.0762 21.7042C22.3657 21.4147 22.3687 20.9463 22.083 20.6531L17.1183 15.5584ZM9.92587 17.3754C5.57256 17.3754 2.0142 13.817 2.0142 9.42587C2.0142 5.0347 5.57256 1.5142 9.92587 1.5142C14.2792 1.5142 17.8375 5.07256 17.8375 9.42587C17.8375 13.7792 14.317 17.3754 9.92587 17.3754Z" fill="#C0C1C6"/>
</svg>
