<svg width="24" height="24" viewBox="0 0 24 24" fill="none" xmlns="http://www.w3.org/2000/svg">
<path fill-rule="evenodd" clip-rule="evenodd" d="M13.5 16C7.867 16 7 14.75 7 11C7 9 7.867 8 13.5 8C19.133 8 20 9 20 11C20 14.75 19.133 16 13.5 16Z" stroke="white" stroke-width="2" stroke-linecap="round" stroke-linejoin="round"/>
<path fill-rule="evenodd" clip-rule="evenodd" d="M12 19.5C12 20.328 11.329 21 10.5 21C9.671 21 9 20.328 9 19.5C9 18.672 9.671 18 10.5 18C11.329 18 12 18.672 12 19.5Z" fill="white"/>
<path fill-rule="evenodd" clip-rule="evenodd" d="M18 19.5C18 20.328 17.329 21 16.5 21C15.671 21 15 20.328 15 19.5C15 18.672 15.671 18 16.5 18C17.329 18 18 18.672 18 19.5Z" fill="white"/>
<path d="M3 4H5L7 11" stroke="white" stroke-width="2" stroke-linecap="round" stroke-linejoin="round"/>
</svg>
