<svg width="24" height="24" viewBox="0 0 24 24" fill="none" xmlns="http://www.w3.org/2000/svg">
<path d="M12 18.25C12.6904 18.25 13.25 18.8096 13.25 19.5C13.25 20.1904 12.6904 20.75 12 20.75C11.3096 20.75 10.75 20.1904 10.75 19.5C10.75 18.8096 11.3096 18.25 12 18.25ZM12 10.75C12.6904 10.75 13.25 11.3096 13.25 12C13.25 12.6904 12.6904 13.25 12 13.25C11.3096 13.25 10.75 12.6904 10.75 12C10.75 11.3096 11.3096 10.75 12 10.75ZM12 3.25C12.6904 3.25 13.25 3.80964 13.25 4.5C13.25 5.19036 12.6904 5.75 12 5.75C11.3096 5.75 10.75 5.19036 10.75 4.5C10.75 3.80964 11.3096 3.25 12 3.25Z" stroke="white" stroke-width="2.5"/>
</svg>
