<svg width="25" height="24" viewBox="0 0 25 24" fill="none" xmlns="http://www.w3.org/2000/svg">
<path fill-rule="evenodd" clip-rule="evenodd" d="M10.5 11C8.5 11 7.5 10 7.5 8C7.5 6 8.5 5 10.5 5C12.5 5 13.5 6 13.5 8C13.5 10 12.5 11 10.5 11Z" stroke="#5E6272" stroke-width="2" stroke-linecap="round" stroke-linejoin="round"/>
<path d="M3.5 19C3.5 16.2 4.5 14 10.5 14C16.5 14 17.5 16.2 17.5 19" stroke="#5E6272" stroke-width="2" stroke-linecap="round" stroke-linejoin="round"/>
<path d="M15.5 5C16.5 5 17.5 6 17.5 8C17.5 10 16.5 11 15.5 11" stroke="#A1A4AA" stroke-width="2" stroke-linecap="round" stroke-linejoin="round"/>
<path d="M19.5 15C21.102 15.901 21.5 17.313 21.5 19" stroke="#A1A4AA" stroke-width="2" stroke-linecap="round" stroke-linejoin="round"/>
</svg>
